STARTFONT 2.3
FONT -FontForge-Satisfy-Book-R-Normal--36-360-72-72-P-156-ISO10646-1
SIZE 36 72 72  2
FONTBOUNDINGBOX 42 52 -8 -18
COMMENT "Generated by fontforge, http://fontforge.sourceforge.net"
COMMENT "Copyright (c) 2011 by Font Diner, Inc. All rights reserved."
STARTPROPERTIES 40
FOUNDRY "FontForge"
FAMILY_NAME "Satisfy"
WEIGHT_NAME "Book"
SLANT "R"
SETWIDTH_NAME "Normal"
ADD_STYLE_NAME ""
PIXEL_SIZE 36
POINT_SIZE 360
RESOLUTION_X 72
RESOLUTION_Y 72
SPACING "P"
AVERAGE_WIDTH 156
CHARSET_REGISTRY "ISO10646"
CHARSET_ENCODING "1"
FONTNAME_REGISTRY ""
CHARSET_COLLECTIONS "ISO10646-1"
BITS_PER_PIXEL 2
FONT_NAME "Satisfy-Regular"
FACE_NAME "Satisfy Regular"
COPYRIGHT "Copyright (c) 2011 by Font Diner, Inc. All rights reserved."
FONT_VERSION "1.001"
FONT_ASCENT 29
FONT_DESCENT 7
UNDERLINE_POSITION -4
UNDERLINE_THICKNESS 2
X_HEIGHT 14
CAP_HEIGHT 26
RAW_ASCENT 799
RAW_DESCENT 200
NORM_SPACE 10
RELATIVE_WEIGHT 40
RELATIVE_SETWIDTH 50
SUPERSCRIPT_X 0
SUPERSCRIPT_Y 17
SUPERSCRIPT_SIZE 23
SUBSCRIPT_X 0
SUBSCRIPT_Y 5
SUBSCRIPT_SIZE 23
AVG_LOWERCASE_WIDTH 148
AVG_UPPERCASE_WIDTH 203
ENDPROPERTIES
CHARS 227
STARTCHAR space
ENCODING 32
SWIDTH 280 0
DWIDTH 10 0
BBX 1 1 0 0
BITMAP
00
ENDCHAR
STARTCHAR exclam
ENCODING 33
SWIDTH 249 0
DWIDTH 9 0
BBX 11 28 -1 -1
BITMAP
000054
0007F8
0007F4
000BF0
000FE0
000FD0
001FC0
002FC0
002F80
003F40
007F00
007E00
00BE00
00FD00
00FC00
01F800
02F400
02F400
03F000
07E000
07D000
0B8000
040000
000000
0A4000
7FC000
BF8000
690000
ENDCHAR
STARTCHAR quotedbl
ENCODING 34
SWIDTH 249 0
DWIDTH 9 0
BBX 11 12 1 15
BITMAP
005014
07E1F4
0BD2F0
0FC3F0
0F83E0
1F47D0
2F0BC0
2F0F80
3E0F40
7D1F40
7C2F00
100400
ENDCHAR
STARTCHAR numbersign
ENCODING 35
SWIDTH 417 0
DWIDTH 15 0
BBX 17 19 -1 4
BITMAP
0000601500
0001F03D00
0002E07C00
0003D0B800
0007C0F400
01AFEAFA80
0BFFFFFFC0
0FBFABEA40
002E07C000
003D0B8000
007C0F4000
1AFFFFE900
7FFFFFFD00
AAF57E5400
02E07C0000
03D0B80000
07D0F80000
0BC1F40000
0A41E00000
ENDCHAR
STARTCHAR dollar
ENCODING 36
SWIDTH 292 0
DWIDTH 11 0
BBX 14 27 -2 -1
BITMAP
00001D00
00002D00
00007D00
0007FF80
002F47D0
007D02E0
00B802E0
00F402E0
00F803D0
00F80B80
00BC0500
007E0000
003F0000
001F4000
000FC000
0007D000
0003E000
0901F000
3C01F400
7C01F400
3D01F000
2E07D000
0BEF4000
01F40000
01E00000
02D00000
01400000
ENDCHAR
STARTCHAR percent
ENCODING 37
SWIDTH 574 0
DWIDTH 21 0
BBX 21 28 0 -1
BITMAP
000000000140
006F80001F40
01FFE0003E00
03E0F400BC00
0BC0B801F400
0F40B807E000
1F00B80F8000
1E00F42F0000
2E01F47D0000
2E02E0F80000
1F07D2F00000
0FAF87D00000
07FE0F800000
01502E000000
00007D000000
0000F41B9000
0002E0BFF400
0007D1F4B800
000F83D07C00
002F0BC03C00
007D0F807C00
01F80F407C00
02F00F00B800
0BD00F00F400
1F800F42E000
3F400BEBD000
BE0007FF4000
940000640000
ENDCHAR
STARTCHAR ampersand
ENCODING 38
SWIDTH 460 0
DWIDTH 17 0
BBX 18 29 -2 -2
BITMAP
0000006900
000002FF40
00000F4780
00002D0780
00007C0B40
0000B81F00
0000F87D00
0000F9F800
0001FFE000
0001FF8000
0001FE0000
0002FC0000
000BF80000
002FF80000
00BFFC0000
01FDFC0000
07F4FC0000
0FE0FD0000
2FC0FD0000
3F40BE0000
7E00BF0090
BD007F02C0
BD007F4B00
BD003FBC00
BF402FE000
3FEABFD000
1FFFFFF400
06AA4BFC00
0000029000
ENDCHAR
STARTCHAR quotesingle
ENCODING 39
SWIDTH 113 0
DWIDTH 4 0
BBX 6 12 1 15
BITMAP
0050
07E0
0BD0
0FC0
0F80
1F40
2F00
2F00
3E00
7D00
7C00
1000
ENDCHAR
STARTCHAR parenleft
ENCODING 40
SWIDTH 234 0
DWIDTH 8 0
BBX 12 34 0 -4
BITMAP
000005
00002D
0000BC
0001F4
0007D0
000B80
001F40
003E00
007D00
00B800
01F400
02F000
03E000
07D000
0BC000
0BC000
0F8000
1F4000
2F4000
2F0000
3F0000
3E0000
3E0000
7E0000
7D0000
7D0000
7D0000
7D0000
3D0000
3D0000
2E0000
1F0000
0F0000
060000
ENDCHAR
STARTCHAR parenright
ENCODING 41
SWIDTH 204 0
DWIDTH 7 0
BBX 11 34 -4 -4
BITMAP
000040
0000D0
0001E0
0000F4
0000B4
0000B8
0000B8
0000BC
0000BC
0000BC
0000BC
0000F8
0000F8
0001F8
0001F4
0002F4
0002F0
0003F0
0003E0
0007D0
000BC0
000F80
001F40
002F00
003E00
007D00
00F800
01F400
03E000
0BC000
1F4000
3E0000
B80000
900000
ENDCHAR
STARTCHAR asterisk
ENCODING 42
SWIDTH 327 0
DWIDTH 12 0
BBX 12 12 2 14
BITMAP
002E40
003F40
343F00
BD3D05
FFB9BE
1BFFFE
01FD55
0BEE00
7F8F80
7F0BE0
1E07E0
040240
ENDCHAR
STARTCHAR plus
ENCODING 43
SWIDTH 350 0
DWIDTH 13 0
BBX 13 12 0 7
BITMAP
000BC000
000F8000
001F4000
002F0000
057F5500
BFFFFF40
FFFFFF00
95BC0000
00BC0000
00F80000
01F80000
01F40000
ENDCHAR
STARTCHAR comma
ENCODING 44
SWIDTH 200 0
DWIDTH 7 0
BBX 5 8 -1 -5
BITMAP
1900
BF00
FF40
BF00
1E00
3C00
A000
4000
ENDCHAR
STARTCHAR hyphen
ENCODING 45
SWIDTH 353 0
DWIDTH 13 0
BBX 13 4 -1 9
BITMAP
056AA940
3FFFFFC0
7FFFEB80
54000000
ENDCHAR
STARTCHAR period
ENCODING 46
SWIDTH 213 0
DWIDTH 8 0
BBX 5 4 -1 -1
BITMAP
1A40
BF80
FF40
A900
ENDCHAR
STARTCHAR slash
ENCODING 47
SWIDTH 262 0
DWIDTH 9 0
BBX 18 28 -4 -1
BITMAP
0000000050
00000007E0
0000000FC0
0000001F40
0000003E00
000000BC00
000000F400
000002F000
000007D000
00000B8000
00001F0000
00003E0000
00007C0000
0000F40000
0002F00000
0007D00000
000B800000
001F400000
002E000000
007D000000
00F8000000
02F4000000
03E0000000
0BD0000000
1F80000000
2F40000000
7F00000000
6400000000
ENDCHAR
STARTCHAR zero
ENCODING 48
SWIDTH 489 0
DWIDTH 18 0
BBX 15 28 1 -1
BITMAP
00001500
0001FF80
000BFBE0
002F81F0
007E00F4
00FC00B8
02F800BC
03F000BC
0BE000BC
0FD000BC
1F8000BC
2F8000BC
3F4000FC
7F0000F8
BE0001F8
BE0002F4
BD0002F4
FD0003F0
FD0007E0
FD000BD0
BD001FC0
BD002F40
7D007F00
7E00FD00
3F02F400
1F9BE000
0BFF4000
01A40000
ENDCHAR
STARTCHAR one
ENCODING 49
SWIDTH 272 0
DWIDTH 10 0
BBX 10 27 0 -1
BITMAP
000B80
002FD0
00BFC0
01FF80
007F40
002F40
003F00
007E00
007D00
00BD00
00BC00
00F800
01F400
01F400
02F000
03E000
03D000
07D000
0BC000
0F8000
1F8000
2F4000
3F4000
3F0000
7F0000
7F4000
190000
ENDCHAR
STARTCHAR two
ENCODING 50
SWIDTH 448 0
DWIDTH 16 0
BBX 17 28 -1 -1
BITMAP
0000055000
0000BFFD00
0007E0BF00
001F803F40
003F002F80
00BE002F80
00FD002F40
00FD003F40
00BD007F00
000000BE00
000000FC00
000002F800
000007F000
00000BD000
00002F4000
0000BE0000
0002F80000
000BE00000
002F800000
00BE000000
02F8000000
0BD0000000
2F40000000
7E05550000
FEBFFFD000
BFFFFFD000
7FEAAFD000
2800018000
ENDCHAR
STARTCHAR three
ENCODING 51
SWIDTH 462 0
DWIDTH 17 0
BBX 16 28 0 -1
BITMAP
00005540
000BFFF4
003FE6FC
00FE007E
02FC003F
03F4003F
07F0007F
03F400BE
02F800FD
005002F8
000007F0
00001FD0
00007F40
0006F800
002FF900
002FAF80
00040BD0
000003E0
000003E0
000003E0
000007E0
19000BD0
FD001FC0
FD002F40
FF00BE00
7FE6F800
2FFFE000
06FA4000
ENDCHAR
STARTCHAR four
ENCODING 52
SWIDTH 452 0
DWIDTH 16 0
BBX 16 28 0 -1
BITMAP
00000004
000001BD
00000FFC
00002FFC
00007EB8
0001F8F4
0003F0F0
000BD1F0
002F42E0
00BE03D0
02F807D0
07E007C0
1FC00B80
7F400F80
FE6ABFE0
BFFFFFF4
7FEABFF4
14003F20
00007E00
0000BE00
0000BD00
0000FD00
0001FC00
0002FC00
0002FC00
0003FC00
0003FC00
0001A000
ENDCHAR
STARTCHAR five
ENCODING 53
SWIDTH 444 0
DWIDTH 16 0
BBX 17 27 0 -1
BITMAP
0006BFFF40
002FFFFF80
002FFFFF80
003D006F40
007C000500
00B8000000
00F4000000
01F0000000
02E0000000
03D0140000
07C6FF4000
0BDFFFC000
0FFF6FD000
0FF807E000
0BE003E000
014003E000
000003D000
000003C000
000007C000
09000B4000
3D001F0000
BD002E0000
FF00BC0000
FFEBF40000
7FFFD00000
2FFF400000
06E4000000
ENDCHAR
STARTCHAR six
ENCODING 54
SWIDTH 477 0
DWIDTH 17 0
BBX 15 28 1 -1
BITMAP
00000540
00007FE0
0002FAF4
000BD1F8
002F41F8
007E02F4
00FC03F0
02F40240
03F00000
07E00000
0FC1B900
1F8FFF80
2FBF4BD0
3FFC03E0
7FF803E0
7FF003F0
BEA003E0
BE0007E0
BE0007E0
BD000BD0
BD000FC0
BE001F80
7E003F00
3F007E00
2F41F800
1FD7F000
07FF8000
01B90000
ENDCHAR
STARTCHAR seven
ENCODING 55
SWIDTH 406 0
DWIDTH 15 0
BBX 14 28 2 -1
BITMAP
00001400
0AFFFFE0
2FFFFFF0
3FFA56F0
3E0002E0
20000BD0
00001F40
00003E00
0000BC00
0001F400
0003F000
000BD000
001F8000
003F4000
007E0000
00FD0000
02F80000
03F40000
0BE00000
0FD00000
2FC00000
3F800000
7F000000
BF000000
FE000000
FE000000
FE000000
54000000
ENDCHAR
STARTCHAR eight
ENCODING 56
SWIDTH 444 0
DWIDTH 16 0
BBX 17 28 -1 -1
BITMAP
0000055000
00006FFD00
0001F40F40
0007D00780
000B800780
001F800B80
001F400F40
002F402F00
002F80BD00
002FC2F800
001FEBE000
000FFF8000
0007FD0000
000BFD0000
002FFF0000
00BD7F4000
02F42F8000
0BE01FC000
0FC00FD000
2F400BE000
3E000BE000
7D000BE000
7D000BD000
7D001FC000
3E002F4000
2F41BD0000
0FFFF40000
01AE400000
ENDCHAR
STARTCHAR nine
ENCODING 57
SWIDTH 462 0
DWIDTH 17 0
BBX 16 28 0 -1
BITMAP
00001540
0001FFD0
000BE5F4
002F8078
007E003C
00BC003D
01F8003D
02F0003E
03E0003E
07D000BE
0BD001FD
0BC002FD
0BC003FD
0BC00BFC
0BC00FBC
0BD02EB8
07F5B9F4
02FFE2F0
00BE43E0
00000BD0
00000F80
08002F40
2C00BE00
3D01FC00
7F5BF400
3FFFD000
1FFE4000
06A40000
ENDCHAR
STARTCHAR colon
ENCODING 58
SWIDTH 226 0
DWIDTH 8 0
BBX 7 11 -1 -1
BITMAP
07F4
0FF8
0FE0
0540
0000
0000
0000
1A40
BF80
FF40
A900
ENDCHAR
STARTCHAR semicolon
ENCODING 59
SWIDTH 212 0
DWIDTH 8 0
BBX 6 15 -1 -5
BITMAP
0BE0
1FF0
2FD0
0500
0000
0000
0000
1900
BF00
FF40
BF00
1E00
3C00
A000
4000
ENDCHAR
STARTCHAR less
ENCODING 60
SWIDTH 271 0
DWIDTH 10 0
BBX 12 15 -1 4
BITMAP
000059
0002F8
000BE0
007F80
01FD00
07F400
2FD000
7F4000
2F4000
1FC000
0BE000
03F000
02F800
00FD00
007E00
ENDCHAR
STARTCHAR equal
ENCODING 61
SWIDTH 374 0
DWIDTH 13 0
BBX 13 8 0 8
BITMAP
06AFFE80
1FFFFFC0
2FAAAA40
10000000
056A9500
7FFFFE00
FFFFFD00
94000000
ENDCHAR
STARTCHAR greater
ENCODING 62
SWIDTH 250 0
DWIDTH 9 0
BBX 11 15 -2 4
BITMAP
00A400
00FD00
007F00
002F40
001FC0
000BE0
0003F0
0002F8
000BF4
002FD0
00BF40
02F800
0FE000
7F8000
A90000
ENDCHAR
STARTCHAR question
ENCODING 63
SWIDTH 413 0
DWIDTH 15 0
BBX 18 28 -1 -1
BITMAP
00005A9000
0007FFFE00
007FE5BF80
00FE000FD0
02FC0007E0
03F40007E0
02F4000BD0
01B8000BD0
0000001FC0
0000002F40
0000007E00
000001FC00
000007F400
0001BF8000
002FFD0000
00FF900000
01FC000000
01F8000000
02F4000000
03F4000000
07F0000000
07D0000000
0A40000000
0000000000
0640000000
3FD0000000
7FD0000000
7F40000000
ENDCHAR
STARTCHAR at
ENCODING 64
SWIDTH 648 0
DWIDTH 23 0
BBX 24 24 -1 -1
BITMAP
00000AFFE400
0001BFA6BE00
000BF4000B80
002F400002E0
00BD001900F4
02F402FF6478
07D01FDBB83C
0F807E0BF82D
2F40F80FF42E
3E02E02EF02E
7D07C002E02E
BC0F8003C02E
B81F400B803E
F82F000F403D
F82E002F007C
B82F007E00F8
BC2F46FC01F4
7D1FFFB803E0
3E06F9780BC0
1F4000B83F40
07E000BEFD00
01FD007FE000
002FE0050000
000150000000
ENDCHAR
STARTCHAR A
ENCODING 65
SWIDTH 552 0
DWIDTH 20 0
BBX 22 36 -4 -9
BITMAP
000000000540
00000000BFD0
00000007FBF0
0000001F82F0
0000007E02F0
000000F802E0
000002F403E0
000003E003D0
00000BD007D0
00001F800BC0
00002F400BC0
00003F000F80
00007E001F80
0000BD001F40
0000FC002F40
0002F8002F00
0003F4003F00
0007F0007E00
000BE1507E00
000FFFFFFE50
01BFFFFFFFD0
2FFFE95AFF40
297F8000FD00
007F4001FC00
00BF0001F800
00FE0002F800
01FD0002F400
03FD0003F400
07FC0003F400
0BF80003F400
0FF40003F400
2FE00003F800
7F800003FC00
54000003FD00
00000002F900
000000004000
ENDCHAR
STARTCHAR B
ENCODING 66
SWIDTH 607 0
DWIDTH 22 0
BBX 21 34 0 -7
BITMAP
000079550000
0001FFFFE000
001FFE5BFD00
01FFF800BF00
02FFF4003F80
02F7F0003F80
0187E0002FC0
000BD0003FC0
000FC0003F80
001F80007F40
002F4000FE00
002F0001FD00
003F0007F800
007E000FE000
00BD002F8000
00FC6AFE0000
01FFFFF80000
01FFFFBE0000
02F6F81FC000
03F00007E000
07E00003F400
0BE00002F800
0FD00002F800
0FC00003F800
1FC00003F800
2F80000BF400
3F40000FF000
7F40002FE000
BF00007FC000
BF0002FF4000
FE001BFC0000
FE56BFE00000
BFFFFE000000
06AA40000000
ENDCHAR
STARTCHAR C
ENCODING 67
SWIDTH 548 0
DWIDTH 20 0
BBX 20 34 0 -7
BITMAP
0000005A40
000007FFE0
00006FD6F8
0001FE00BD
0007F8007E
000FE0007F
002FC000BF
007F4000BF
00FE0000FE
02FD0002FE
03F80007FC
07F4000FF8
0FF00007E0
1FE0000000
2FD0000000
3FC0000000
3F80000000
7F80000000
BF40000000
BF40000000
BF00000000
FF00000000
FF00000000
FE00000000
FE00000000
BF00000100
BF00000700
7F40001E00
3F80007C00
2FD001F400
0FF41BD000
07FFFF4000
00BFF90000
0016500000
ENDCHAR
STARTCHAR D
ENCODING 68
SWIDTH 632 0
DWIDTH 23 0
BBX 22 34 0 -7
BITMAP
000055400000
000BFFF90000
007FFFFF8000
00FF956FF000
00F80002FC00
00900000FE00
0002E0007F00
001FD0003F80
001FD0002FC0
001FC0001FC0
002FC0001FD0
002F80001FD0
003F80001FD0
003F40001FD0
007F00001FD0
007F00001FD0
00BE00002FD0
00FD00003FC0
00FC00003F80
01FC00007F40
02F80000BF00
03F40000FE00
03F00002FC00
07E00003F800
0BD0000BF000
0FD0001FD000
1FC0003F8000
2F8000BF0000
3F4002FC0000
7F000BF00000
FF00BF800000
BFEBFD000000
1FFFE0000000
01A500000000
ENDCHAR
STARTCHAR E
ENCODING 69
SWIDTH 523 0
DWIDTH 19 0
BBX 21 34 -1 -7
BITMAP
000000154000
000006FFF400
00007FE57D00
0002FD002F00
000BF4002F40
001FD0002F40
003F80003F40
00BF40007F00
00FF0000FE00
01FE0002FC00
01FE000BF400
01FE00015000
00FE00000000
00BF00000000
007F80000000
001FD0000000
0007FFE00000
001BFFE00000
00BF5A800000
03F800000000
0FE000000000
2F8000000000
7F4000000000
BF0000000000
FE000000D000
FE000001C000
FF0000038000
FF00000B4000
BF80002E0000
7FD000BC0000
2FF907F40000
0BFFFFD00000
01FFFE000000
001650000000
ENDCHAR
STARTCHAR F
ENCODING 70
SWIDTH 585 0
DWIDTH 21 0
BBX 20 34 1 -7
BITMAP
0000055500
001AFFFFE4
01FFFAABFD
0BF90000BE
2FD000007E
7F4000007E
7F800000BD
7FFA0000F8
2FFD0002F4
07F40003E0
00000007D0
0000000F80
0000001F40
0000003F00
000155BE00
02FFFFFFF4
07FFFFFFF0
0BA403F000
000007E000
00000FD000
00001FC000
00003F8000
00007F0000
0000BE0000
0001FD0000
0002FC0000
0003F80000
0007F80000
000BF40000
000BF40000
000FF40000
000FF00000
000FF40000
0005000000
ENDCHAR
STARTCHAR G
ENCODING 71
SWIDTH 612 0
DWIDTH 22 0
BBX 21 34 0 -7
BITMAP
000000164000
000001FFF400
00000BE5FC00
00007F407E00
0001FD003F00
0003F8003F00
000BE0003F00
001FD0007F00
003F8000BF00
00BF4001FE00
00FE0007FD00
02FD000BFC00
03FC0003F400
07F800005000
0BF400000000
0FF000000000
1FE000000000
2FD000000000
3FD006ABFF80
3FC02FFFFF40
7F802AAAF900
7F800002F400
7F400003F000
7F400007E000
7F40000BD000
7F40000F8000
7F40002F4000
3F40003E0000
2F8000BC0000
1FC002F40000
0BD00BE00000
03F96F800000
00BFFD000000
001AA0000000
ENDCHAR
STARTCHAR H
ENCODING 72
SWIDTH 649 0
DWIDTH 23 0
BBX 25 33 -1 -7
BITMAP
00006E00001A40
0000FD00007F40
0001FC0000BF00
0002F80000FE00
0003F40001FD00
0003F40002FC00
0007F00002F800
000BE00003F400
000BD00007F000
000FC0000BE000
001FC0000BD000
002F80000FC000
002F40001F8000
003F00002F4000
007F00557F4000
007FBFFFFFFC00
02FFFFFFFFF800
07FEBF40BEF000
01FC07D0BC0000
01F801F0F80000
02F400B5F80000
03F4003DF40000
03F0002FF00000
07F0001FF00000
0BE0000FE00000
0FE0000FD00000
0FD0000FD00000
1FD0000FC00000
2FC0001FC00000
2FC0001F800000
3F80002F800000
7F80002F400000
29000000000000
ENDCHAR
STARTCHAR I
ENCODING 73
SWIDTH 537 0
DWIDTH 19 0
BBX 22 34 -3 -7
BITMAP
000000001400
00000002FF00
0000001FEF40
0000007F8F80
000000FE0F80
000002FC1F40
000003F41F40
000007F02F40
00000BE02F40
00000BE03F00
00000FD07F00
00000FD07E00
00000BC0BE00
00000BC0FD00
000007C1FC00
000007D1FC00
000003E2F800
000001C3F400
00000007F000
0000015BF950
0006BFFFFFE0
007FFFAFD400
07FF901F8000
1FF4002F4000
3FC0003F0000
7F40007E0000
BF0000BC0000
BF0000F80000
7F4002F00000
2FC003E00000
1FE00B800000
07FD6F000000
00BFF8000000
000690000000
ENDCHAR
STARTCHAR J
ENCODING 74
SWIDTH 500 0
DWIDTH 18 0
BBX 25 34 -3 -7
BITMAP
00000001550000
000002FFFFFE00
000007FFFFFF40
000007A57F5600
000000007E0000
00000000BE0000
00000000FD0000
00000000FC0000
00000001FC0000
00000002F80000
00000003F40000
00000003F40000
00000007F00000
0000000BE00000
0000000FE00000
0000001FD00000
0000001FC00000
001B402FC00000
007FC03F800000
01FFC07F400000
07FE407F400000
0BF400BF000000
1FD000FE000000
2F8001FD000000
7F0002FC000000
7D0003F4000000
BC0007F0000000
BC000BE0000000
FC001FC0000000
BC002F40000000
7D007E00000000
3E01F800000000
1FEFE000000000
02BA0000000000
ENDCHAR
STARTCHAR K
ENCODING 75
SWIDTH 497 0
DWIDTH 18 0
BBX 22 37 -2 -10
BITMAP
000005000040
00007E000BD0
0000FD001FD0
0001FC001FD0
0002F8001FC0
0003F4002FC0
0007F0003F80
000BE000BF00
000FD000FE00
000FC002FC00
001F8007F400
002F400FE000
003F002F8000
007F00BE0000
007E02F80000
00BD0BE00000
00FC7F400000
01FEF8000000
02FFEA900000
07FFFFF80000
03F402FD0000
03F000FE0000
07E000BE0000
0BE000BE0000
0BD000FD0000
0FD001FC0000
1FC002F80000
1FC003F40000
2F8007F00000
3F800BE00000
7F800FD00000
7F800FD00000
BF400FD00000
54000BE00000
000003F80400
000001FFFD00
0000001AA000
ENDCHAR
STARTCHAR L
ENCODING 76
SWIDTH 492 0
DWIDTH 18 0
BBX 23 34 -4 -7
BITMAP
000000000150
000000002FF8
00000000BFFC
00000002FEFC
00000003F4BC
0000000BE0BC
0000000FD0F8
0000001FC2F0
0000002F8BE0
0000003F6F80
0000003FFF00
0000007FFC00
003956FFE000
002FFFFE4000
0006FFFD0000
000001FC0000
000001F80000
000002F40000
000003F40000
000007F00000
000007E00000
00000BD00000
00000FC00000
00001F800000
00002F000000
00007E000000
0000BD000000
06FEF8000000
2FFFF4000000
7F9FFE000140
BD6FBFE41B40
7FF91FFFFF00
1A9002FFFE00
0000002FF400
ENDCHAR
STARTCHAR M
ENCODING 77
SWIDTH 733 0
DWIDTH 26 0
BBX 30 33 -4 -7
BITMAP
0000001BC00007F0
0000003FC0002FF0
0000007FC0007FF0
000000FFD000BFE0
000001FFD000FBE0
000002F7D002F7D0
000003E7D003E7C0
000007D7D00BDBC0
00000BD7D00F8F80
00000FCBC02F4F80
00001F8BC03E1F40
00002F4BC07D2F00
00003F4FC0B83F00
00007F0F81F43E00
00007E0F82F07D00
0000BE0F83D0BD00
0000FD1F8BC0FC00
01D0FC1F8F80F800
03C1F81F9F41F800
0B42F81FAE02F400
0F02F41FBD02F400
2E03F01FFC03F000
3D07F01FF807F000
7C07E00FF407E000
7C0BD00FF40BE000
BC0FD00BF40FD000
BC1FC007E00FD000
BC2F8001401FD000
7D3F4000001FE000
7EBF0000001FE000
3FFE0000000FF400
1FFC00000007FE00
019000000001A400
ENDCHAR
STARTCHAR N
ENCODING 78
SWIDTH 541 0
DWIDTH 19 0
BBX 25 34 -2 -7
BITMAP
00000000001900
0001B40001FF40
0007F80007FF80
0007F8000FE380
000BF8001F8380
000FF8002F4780
000FFC003F0B40
001FFC007E1F00
002FBC00BD3D00
002E7C00FDF800
003D7C05FFE000
007D7C0BFF4000
00BC7C01F80000
00B83D02F40000
00F83D02F40000
01F43D02F00000
02F03D03F00000
02F03D03E00000
03E03D07E00000
07E03D07D00000
0BD02E0BC00000
0BD02E0FC00000
0FC02E0F800000
1FC02E1F800000
1F802F2F400000
2F801F2F000000
3F801F7F000000
3F800FBE000000
7F800FFD000000
7F800BFC000000
7F8007FC000000
7F8003F8000000
3F8002F4000000
05000040000000
ENDCHAR
STARTCHAR O
ENCODING 79
SWIDTH 567 0
DWIDTH 20 0
BBX 19 34 0 -7
BITMAP
00000A9400
00007FFF40
0001FFEFC0
0003FF4BD0
000FE503E0
002F8003F0
007F4002F4
00BE0002F4
01FC0002F4
02F80002F8
03F40002F8
07F00002F8
0BE00002F8
0FD00002F8
1FC00002F4
2F800003F4
3F800003F4
3F400003F0
7F400007F0
7F00000BE0
7F00000BD0
BF00000FD0
BE00001FC0
BE00002F80
BE00003F00
BE0000BE00
7E0000FD00
7F0002F800
3F0003F000
2F400FD000
1F802F8000
0BE5FE0000
02FFF40000
006E400000
ENDCHAR
STARTCHAR P
ENCODING 80
SWIDTH 552 0
DWIDTH 20 0
BBX 23 34 -2 -7
BITMAP
0000005A5000
00002BFFFE00
0002FF95BF80
002FFD001FD0
00BFBD000BF0
00FDBC0007F0
00B4B80003F4
0000F40003F4
0001F40003F4
0002F00007F4
0003E00007F0
0003E0000BE0
0007D0001FD0
000BC0002F80
000FC000BF00
001F8001FD00
001F400BF400
002F406FD000
003F06FE0000
007FBFE40000
007FFA400000
00BE00000000
00FD00000000
01FC00000000
02FC00000000
02F800000000
03F400000000
07F400000000
0BF000000000
0FE000000000
2FD000000000
7FC000000000
7F4000000000
040000000000
ENDCHAR
STARTCHAR Q
ENCODING 81
SWIDTH 583 0
DWIDTH 21 0
BBX 19 34 1 -7
BITMAP
0000059000
00007FFE00
0003FE7F80
001FE00BD0
003F8007E0
00BF0003F0
01FD0002F4
03F80001F4
0BF00001F8
0FE00001F8
1FC00001F8
3F800001F8
3F400002F8
7F400002F4
BF000003F4
FE000003F0
FE000007F0
FD00000BE0
FD00000FD0
FD00001FC0
BE00002F80
7F00007F40
3F8000BE00
1FE400FD00
06E002F800
000007F400
01AA4FE000
0BFFFFC000
2FE6FF0000
7F01FF8000
BE0BFBE000
7FFFD2FD00
3FFE006FA4
0690000690
ENDCHAR
STARTCHAR R
ENCODING 82
SWIDTH 560 0
DWIDTH 20 0
BBX 22 36 -1 -9
BITMAP
0000016A4000
00006FFFF800
000BFE56FF00
007FF4007F80
02FEF4001FC0
02F5F4000FD0
01D2F0000BE0
0042E0000BE0
0003E0000BE0
0007D0000FE0
000BC0001FD0
000FC0002FC0
000F80003F80
001F4000BF00
002F4001FD00
003F0003F800
007F401FE000
02FFF4BF8000
07FEBFFD0000
07FEFFE00000
02FFFF800000
01FC07D00000
02F803E00000
03F802E00000
03F402F00000
07F002F40000
0BF002F40000
0FE001F80000
0FD001F80000
2FC001F80000
3FC001FC0000
BF4001FC0000
BE0000FE0000
000000BFF800
0000007FE000
0000001A4000
ENDCHAR
STARTCHAR S
ENCODING 83
SWIDTH 474 0
DWIDTH 17 0
BBX 20 34 -2 -7
BITMAP
000001AA40
00002FFFF4
0000FF91FC
0003FD00BD
000FE0007E
001FC0007E
003F40007E
007F0000BE
007F0000FD
007F0001FC
007F4003E4
003FC00000
002FD00000
000FF40000
0007FD0000
0002FF4000
0000BFC000
00003FE000
00000FF000
000007F400
000003F800
000002F800
000001FC00
000000F800
068000F800
3F4000F400
BF0001F400
BF0002F000
BF4003E000
7F800BC000
3FD02F4000
1FFAFE0000
0BFFF40000
01AA400000
ENDCHAR
STARTCHAR T
ENCODING 84
SWIDTH 423 0
DWIDTH 15 0
BBX 19 33 1 -7
BITMAP
1ABFFFFEA4
BFFFFFFFF4
FFFEFE5690
B941FC0000
0002F80000
0002F40000
0003F40000
0007F00000
000BE00000
000BD00000
000FC00000
001FC00000
001F800000
002F400000
003F000000
007F000000
007E000000
00BD000000
00FC000000
00FC000000
01F8000000
02F8000000
03F4000000
03F4000000
07F0000000
0BF0000000
0BE0000000
0FE0000000
1FD0000000
1FD0000000
2FC0000000
3F80000000
1500000000
ENDCHAR
STARTCHAR U
ENCODING 85
SWIDTH 574 0
DWIDTH 21 0
BBX 22 33 0 -7
BITMAP
0001A4000BF0
000FF0001FE0
002FE0002FD0
003FC0003FC0
003F80003F80
007F40007F40
00BF0000BF00
00FE0000FE00
01FD0001FD00
02FC0001FC00
03F80002F800
03F40003F400
07F40007F400
0BF00007F000
0BE0000BE000
0FD0000FD000
1FC0000FC000
1F80001F8000
2F80002F8000
2F40002F4000
3F00003F4000
7F00007F0000
7E0000BF0000
7E0000FE0000
BE0001FE0000
BE0003FE0000
BE0007FD0000
BE000FFD0000
7F002F7D0000
7F80BD7E0000
2FFFF47E0000
0BFF802F0000
016500040000
ENDCHAR
STARTCHAR V
ENCODING 86
SWIDTH 503 0
DWIDTH 18 0
BBX 19 33 1 -7
BITMAP
01BC0000F4
03F80002FC
07F40003FC
0BF00007F4
0BE0000BE0
0FD0001FD0
1FC0002F80
1F80003F40
2F80007F00
2F4000BE00
3F0000FD00
3F0001FC00
3F0002F800
7E0003F400
7E0007F000
7E000BE000
7E000FD000
7E001FC000
7E002F8000
7E003F4000
7E007F0000
3E007E0000
3E00BC0000
3E00F80000
2E01F40000
2F02F00000
1F03D00000
1F47C00000
0F8F800000
0BFF000000
07FD000000
02FC000000
00A0000000
ENDCHAR
STARTCHAR W
ENCODING 87
SWIDTH 817 0
DWIDTH 29 0
BBX 28 34 1 -7
BITMAP
00000000000019
001FD0000001FE
007F80004000FE
00BF0007D000FF
00FD000FD000FF
01FC002FD000FE
02F8003FC000FE
03F4003F8000FE
07E0007F8000FD
0BD000BF4000FD
0FC000BF0000FC
1FC000BF0000FC
2F8000BE0001F8
2F4000FD0001F8
3F0000FC0002F4
7E0000F80003F0
7E0001F80003F0
BD0002F80007E0
BC0003F4000BD0
FC0007F4000FC0
F8000BF4001F80
F8000FF0002F40
F8001FF0003F00
F8002FF0007E00
F8007EF000BD00
F800BDF000F800
F801F4F401F400
B802F0F403E000
BC07D0F80BD000
7D0F80BC1F8000
3FBF40BE7F0000
2FFD003FFD0000
0FF4002FF40000
0290000A800000
ENDCHAR
STARTCHAR X
ENCODING 88
SWIDTH 579 0
DWIDTH 21 0
BBX 27 34 -2 -7
BITMAP
00069000000140
002FF800000BE0
0079FD00003FF4
00F07E0000BF80
01E03F0002FE00
02E02F0007F800
02E01F400FE000
02F41F802F8000
01FE6F807F0000
00FFFFC0FD0000
007FDBC2F80000
000A4BC7F00000
000007DFD00000
000007FF800000
000007FF000000
000003FD000000
000003F8000000
000007F0000000
00000FF0000000
00002FF0000000
00007FF0000000
0000FEF0000000
0002F9F4000000
0007F1F4000000
000FD0F8000000
002F80F8000000
007F40FC000000
00FE00BD000000
02FC007E000400
07F4003F001C00
1FE0002F40B400
7FC0001FEBD000
2F40000BFF4000
00000001A40000
ENDCHAR
STARTCHAR Y
ENCODING 89
SWIDTH 532 0
DWIDTH 19 0
BBX 21 34 0 -7
BITMAP
000040000500
002FC0007F40
003F8000BF00
007F4000BE00
00BF0000FE00
00FE0001FD00
01FD0001FC00
02FC0002F800
02F80003F400
03F40003F000
07F00007E000
0BE0000BE000
0BD0000FD000
0FD0001FC000
1FC0002F8000
1F80003F8000
2F80007F4000
2F4000FF0000
2F4002FE0000
2F4007EE0000
2F801F7D0000
2FD5BD7C0000
0FFFF4BC0000
07FF80F80000
005401F40000
000002F00000
000003E00000
00000BC00000
09001F800000
3F407F000000
BFEBFD000000
BFFFF4000000
2FFF80000000
059400000000
ENDCHAR
STARTCHAR Z
ENCODING 90
SWIDTH 455 0
DWIDTH 16 0
BBX 21 34 -3 -7
BITMAP
000000100000
0002BFFFFF40
000BFFFFFF80
000FFFAAAF80
000E50002F80
000000003F80
000000007F00
00000000FE00
00000002FC00
00000007F400
0000000FE000
0000002FC000
000000BF4000
000001FD0000
000003F80000
00000FE00000
00002FC00000
0000BF400000
0001FD000000
0007F8000000
000FE0000000
002FC0000000
007F40000000
00FD00000000
02F800000000
07E000000000
0FD000000000
2F8000000000
3F0000000000
BD5BFFFA0000
BFFFFFFF4000
BFFFFFFE0000
7FA56AF80000
100000000000
ENDCHAR
STARTCHAR bracketleft
ENCODING 91
SWIDTH 202 0
DWIDTH 7 0
BBX 13 34 -2 -4
BITMAP
00006F80
0000FF80
0001FE40
0002F000
0003D000
0007C000
000BC000
000F8000
001F4000
001F0000
002E0000
003D0000
007D0000
00BC0000
00B80000
00F40000
01F40000
01F00000
02E00000
03D00000
07D00000
07C00000
0B800000
0F800000
0F400000
1F000000
2F000000
2E000000
3D000000
3D000000
7D000000
7E400000
BFD00000
7FD00000
ENDCHAR
STARTCHAR backslash
ENCODING 92
SWIDTH 273 0
DWIDTH 10 0
BBX 8 28 1 -1
BITMAP
1400
7D00
7D00
7D00
7E00
3E00
3E00
2F00
2F00
1F00
1F40
0F40
0F40
0F80
0B80
0BC0
07C0
07D0
03E0
03E0
02F0
02F0
01F4
01F8
01F8
00FC
00FD
0064
ENDCHAR
STARTCHAR bracketright
ENCODING 93
SWIDTH 216 0
DWIDTH 8 0
BBX 13 34 -4 -4
BITMAP
0000AA40
0001FFC0
00006F80
00000F80
00000F40
00001F40
00001F00
00002E00
00002E00
00003D00
00007C00
00007C00
0000B800
0000F400
0000F400
0001F000
0002E000
0003E000
0003D000
0007C000
000B8000
000F8000
000F4000
001F0000
002E0000
003D0000
007D0000
00BC0000
00F80000
00F40000
02F00000
2BE00000
7FD00000
7F800000
ENDCHAR
STARTCHAR asciicircum
ENCODING 94
SWIDTH 287 0
DWIDTH 10 0
BBX 13 13 -1 13
BITMAP
0002FC00
0007FC00
000FFD00
002F7D00
003E3D00
00BC3D00
01F43E00
03E03E00
07D02F00
0F802F00
2F002F00
7D002F40
B8001F40
ENDCHAR
STARTCHAR underscore
ENCODING 95
SWIDTH 439 0
DWIDTH 16 0
BBX 19 4 -4 -1
BITMAP
15AAAAA940
BFFFFFFFF4
FFFFFFFFF0
5500000550
ENDCHAR
STARTCHAR grave
ENCODING 96
SWIDTH 567 0
DWIDTH 20 0
BBX 7 5 9 20
BITMAP
2400
BE00
7FD0
0BF4
00B4
ENDCHAR
STARTCHAR a
ENCODING 97
SWIDTH 435 0
DWIDTH 16 0
BBX 20 16 -1 -1
BITMAP
0001A40000
000BFD0000
007EBD0000
01F87E4000
03F05F4000
0BD01F4000
0F802F0005
2F402E001D
3F003E0038
7E007D00B0
7E00BC02D0
BE02FC0740
7F5F7C1E00
7FFE3EB800
2FF42FE000
0540054000
ENDCHAR
STARTCHAR b
ENCODING 98
SWIDTH 415 0
DWIDTH 15 0
BBX 19 27 0 -1
BITMAP
0001400000
001F800000
002F800000
007F800000
00BF400000
00FF000000
01FF000000
02FE000000
03FD000000
07FC000000
0BF8000000
0FF4000000
1FF0000000
2FE0780000
2FC1FD0064
3F82FE6BE0
3F40FFF900
7E003E4000
7C007D0000
7C00BC0000
7800F80000
7801F40000
7C03E00000
3C0B800000
2EBF000000
1FF8000000
0650000000
ENDCHAR
STARTCHAR c
ENCODING 99
SWIDTH 363 0
DWIDTH 13 0
BBX 17 16 -1 -1
BITMAP
000AA00000
007FF80000
01FD3C0000
07F0BC0000
0BD1FC0000
1F81F40000
2F00500180
3E00000380
7E00000B00
7D00002D00
7D0000B400
3E0002D000
3F001B4000
1FE5BD0000
0BFFE00000
01BE400000
ENDCHAR
STARTCHAR d
ENCODING 100
SWIDTH 483 0
DWIDTH 17 0
BBX 22 26 -1 -1
BITMAP
00000007E000
0000000BF000
0000000FF000
0000000FF000
0000001FE000
0000002FE000
0000003FD000
0000007FD000
000000BFC000
000000BF8000
000140FF4000
001FF1FE0000
00BD79FD0000
02F02EF80000
07D01FF40000
0F801FE00000
1F400BD00090
2E000B8001C0
3D000F000740
7D002F001E00
7C007E007800
7D01FE01E000
7E0BAE078000
3FFE2FAE0000
1FF40FF80000
014006900000
ENDCHAR
STARTCHAR e
ENCODING 101
SWIDTH 372 0
DWIDTH 13 0
BBX 16 16 0 -1
BITMAP
00069000
007FF000
02F6F400
07D1F400
1F42E000
2F07C000
7D1F4001
BDBD0007
FFE0001D
FF400078
FC0001E0
FC000B80
BE002E00
7F96F400
1FFF8000
06A90000
ENDCHAR
STARTCHAR f
ENCODING 102
SWIDTH 325 0
DWIDTH 12 0
BBX 19 42 -4 -17
BITMAP
00002F8000
00003F8000
00003F8000
00003F8000
00003F4000
00003F4000
00003F0000
00007E0000
0000BD0000
0000BC0000
0000F80000
0001F40000
0002F00000
0002E00000
0003D015A8
0007DAFFA8
000FFF9000
003FE40000
00BF000000
00FE000000
00FE000000
007F400000
00BFD00000
00FAF40000
00F4BC0000
01F03E0000
02F02F0000
03E00F4000
03D00F8000
07C00F8000
0BC00F8000
0F800F8000
0F401F4000
1F402F0000
2F007E0000
2E00FC0000
3E02F40000
7D0BE00000
7EBFC00000
7FFF000000
3FF8000000
1B90000000
ENDCHAR
STARTCHAR g
ENCODING 103
SWIDTH 459 0
DWIDTH 17 0
BBX 20 33 -1 -18
BITMAP
0005400000
002FF46400
00FEB8F800
02F02EF000
07D01FE000
0F801FE000
1F400FD000
2F0007C007
2E000BC01D
3E000F8078
3E002F41E0
3F007F4B80
2F41FF6E00
1FFFAFF400
0BFD3FD000
0150BE0000
0002FC0000
001FFC0000
007EF80000
01F9F40000
07E1F40000
1F82F00000
3F03E00000
7D07E00000
7C07D00000
BC0BC00000
7C0F800000
7C1F400000
3D2F000000
2FBE000000
1FFD000000
07F8000000
0190000000
ENDCHAR
STARTCHAR h
ENCODING 104
SWIDTH 465 0
DWIDTH 17 0
BBX 20 26 -1 -1
BITMAP
0006800000
001FD00000
001FC00000
002FC00000
002F800000
003F400000
003F000000
007E000000
00BD000000
00BC000000
00FC000000
01F82F8000
02F5FFE000
02F7EFE000
03EE07E000
07F807E000
07E00BD000
0BD00FC003
0F801F800E
0F802F402C
1F403F00B0
2F003D07C0
3F007E2E00
3E007FF800
7E003FD000
18000A0000
ENDCHAR
STARTCHAR i
ENCODING 105
SWIDTH 274 0
DWIDTH 10 0
BBX 13 24 0 -1
BITMAP
001E0000
007E0000
007E0000
00380000
00000000
00000000
00000000
00000000
00000000
02A00000
0BE00000
0FD00000
1FC00000
2F800000
2F400140
3F000740
3E000E00
3D003C00
7D00F400
7C07D000
7C1F4000
3FFD0000
1FF40000
01400000
ENDCHAR
STARTCHAR j
ENCODING 106
SWIDTH 267 0
DWIDTH 10 0
BBX 21 40 -8 -16
BITMAP
000000060000
0000001F4000
0000003F4000
0000003E0000
000000280000
000000000000
000000000000
000000000000
000000000000
000000000000
000002900000
000007F00000
00000BE00000
00000BD00000
00000FC00000
00001F800180
00002F400740
00003F001E00
00003E007800
00007E01E000
0000BD0B8000
0000BC2E0000
0000FDF40000
0001FFD00000
0001FE000000
0007F4000000
001FF0000000
007FE0000000
01FBE0000000
03E7D0000000
0BCBC0000000
1F4FC0000000
3E0F80000000
7D1F40000000
BC2F00000000
783E00000000
787D00000000
3CBC00000000
1FF400000000
07D000000000
ENDCHAR
STARTCHAR k
ENCODING 107
SWIDTH 440 0
DWIDTH 16 0
BBX 20 26 -1 -1
BITMAP
001BC00000
002FC00000
002FC00000
002F800000
003F400000
003F000000
007E000000
007D000000
00BC000000
00F8000000
00F4010000
01F06F8000
02E1FFD000
02DB9FD000
03EE07C000
07F80B4000
0BE02E0000
0B8BF4000D
0F1FF80038
1F1FBC00B0
2E007C01D0
3D00B80780
3D00F42E00
7C00FAB800
B800FFE000
64007E4000
ENDCHAR
STARTCHAR l
ENCODING 108
SWIDTH 218 0
DWIDTH 8 0
BBX 9 26 -1 -1
BITMAP
000680
002FC0
002FC0
002F80
003F40
003F40
007F00
00BE00
00BD00
00FC00
01FC00
01F800
02F400
03F000
07F000
07E000
0BD000
0FC000
0FC000
1F8000
2F4000
3F0000
3F0000
7E0000
7D0000
280000
ENDCHAR
STARTCHAR m
ENCODING 109
SWIDTH 717 0
DWIDTH 26 0
BBX 29 15 0 -1
BITMAP
00001A402A000000
07E1FF81FF800000
0BE7FFC7FFC00000
0BDF4FDF5FC00000
0FF80FF80FC00000
1FF00FF01FC00180
2FD00FD01F800740
2F801F802F400E00
3F402F403F402C00
7F003F007F007400
7E007E007E01E000
BD007D00BE078000
FC00BC00BF6E0000
FC00F8007FF80000
900050001A900000
ENDCHAR
STARTCHAR n
ENCODING 110
SWIDTH 461 0
DWIDTH 17 0
BBX 21 15 -1 -1
BITMAP
00642F400000
02F5FFD00000
03F7EFD00000
03FE0BE00000
07FC0BD00000
0BF00BD00240
0BD00FC00700
0F801F801D00
1F802F403800
1F402F00B000
2F003F02D000
3F007E0B4000
7E007FBD0000
BD003FF40000
50001B800000
ENDCHAR
STARTCHAR o
ENCODING 111
SWIDTH 393 0
DWIDTH 14 0
BBX 18 16 0 -1
BITMAP
0004000000
01FF400000
07FBE00000
0FC0F40010
2F40B801D0
7F40B80B80
BF80B87D00
FFD0BFE000
F6FFFF4000
F4BFF80000
F406F00000
F403E00000
F80BC00000
BD7F400000
3FFD000000
0690000000
ENDCHAR
STARTCHAR p
ENCODING 112
SWIDTH 451 0
DWIDTH 16 0
BBX 23 29 -4 -15
BITMAP
0006807D0000
000FD3FF4000
000BEFAF8000
000FFC0F8000
000FF00B8000
001FD00F8004
002F401F4028
002F002F0070
003E003E01D0
007D00BC0780
007ED1F81E00
00BFFFF0B800
00FFFFEBE000
01FBFFFF4000
01F1F9640000
02F000000000
03E000000000
07D000000000
07D000000000
0BC000000000
0FC000000000
1F8000000000
1F4000000000
2F4000000000
3F0000000000
7F0000000000
BE0000000000
BE0000000000
7D0000000000
ENDCHAR
STARTCHAR q
ENCODING 113
SWIDTH 462 0
DWIDTH 17 0
BBX 18 31 0 -17
BITMAP
002F81A000
01FAF3E000
07D0BBE000
1F807FD000
2F007FC000
7E001F8000
BD001F4000
FC002F0000
FC003F0010
FC007E0070
FC00FD01D0
FC02FC0380
BE0BBC0E00
3FFDB82C00
1BF4F4B400
0001F6D000
0002FB4000
0003FD0000
0003F40000
0007D00000
000BC00000
001F800000
002F800000
007F400000
00BF400000
00BF400000
00BF400000
007F400000
003F400000
001F400000
0001000000
ENDCHAR
STARTCHAR r
ENCODING 114
SWIDTH 406 0
DWIDTH 15 0
BBX 21 18 -3 -1
BITMAP
000180000000
000BE0000000
001FF0000000
002FE0000000
003FE1000000
002FFFC00000
002FFFE00000
007D07E00000
00B807E00140
01F00BD00740
02E01F800E00
07C02F003C00
0B407D00B400
1E00BC02D000
2C00F80B4000
7400FD7E0000
B000BFF40000
40002F900000
ENDCHAR
STARTCHAR s
ENCODING 115
SWIDTH 351 0
DWIDTH 13 0
BBX 10 17 0 -1
BITMAP
001E00
00BF40
02FE00
03FC00
02FC00
03FD00
0B7E00
1D2F00
381F80
B00FC0
0007E0
0103F0
1E02F0
3F42D0
3F8780
1FFE00
07F400
ENDCHAR
STARTCHAR t
ENCODING 116
SWIDTH 301 0
DWIDTH 11 0
BBX 18 26 -3 -1
BITMAP
00002D0000
0000BE0000
0000FE0000
0001FE0000
0002FD4000
156BFFFE90
7FFFFFFFF0
1AABF80150
000BF40000
000BF00000
000FE00000
001FD00000
001FC00000
002F800000
003F400000
003F000000
007D000180
007C000340
00B8000E00
00B4002C00
00B000B400
00F002D000
00B40B8000
00BEBE0000
003FF40000
000A900000
ENDCHAR
STARTCHAR u
ENCODING 117
SWIDTH 468 0
DWIDTH 17 0
BBX 20 15 0 -1
BITMAP
0190064000
0BD00FC000
1F801F8000
2F402F8000
3F003F4000
7E007F4006
7D00BF000D
BD00BE0028
FC00BC00B0
FC00B801D0
FC01F80780
FD07FC2E00
7FAF7FF800
2FFD2FD000
0590050000
ENDCHAR
STARTCHAR v
ENCODING 118
SWIDTH 427 0
DWIDTH 15 0
BBX 19 15 0 -1
BITMAP
0A4007D000
3F401FD000
7F002FC000
7E007F8004
BE007F4028
BD007E01E0
BD007FAF40
BC00FFA400
BD02E00000
7D07C00000
7D0F400000
3F7D000000
2FF8000000
1FE0000000
0640000000
ENDCHAR
STARTCHAR w
ENCODING 119
SWIDTH 646 0
DWIDTH 23 0
BBX 27 16 0 -1
BITMAP
00000100000000
06C01F801A0000
1FC03F807F0000
2F807F40BF0000
2F407F00FE0000
3F00BE00FD0028
7E00BC00FD01E0
7E00B800FFBF40
7D00B401FFE400
BC00B002F00000
BC01F003E00000
BC02F407C00000
7C0B780F400000
7E6D2E7E000000
2FF41FF8000000
0A900290000000
ENDCHAR
STARTCHAR x
ENCODING 120
SWIDTH 399 0
DWIDTH 14 0
BBX 18 16 -2 -1
BITMAP
0090005000
02F401F800
01F807F800
00FC0FE000
007D3F8000
003EBE0000
002FF80000
001FE00000
001FC00000
007F800060
01FFC001D0
03F7D00B40
0FD2F06E00
2F41FFF800
BD00FFD000
6400290000
ENDCHAR
STARTCHAR y
ENCODING 121
SWIDTH 406 0
DWIDTH 15 0
BBX 14 29 -1 -15
BITMAP
069002A0
0BE007F0
0BE007F0
0FD007E0
0FC00BD0
1F800FC0
2F401F80
3F003F40
7E007F00
7D00FE00
BD02FE00
7E0BFD00
7FBFBC00
2FFDBC00
0BE0F800
0000F400
0001F400
0002F000
0003E000
0007E000
0007D000
000BC000
000FC000
001F8000
002F8000
002F4000
003F0000
007F0000
002E0000
ENDCHAR
STARTCHAR z
ENCODING 122
SWIDTH 448 0
DWIDTH 16 0
BBX 20 31 -1 -16
BITMAP
0000055000
001BFFF800
007FFFF800
007E51F400
002002F000
000003D000
00000BC000
00001F4000
00003E0005
0000BC001D
0002F54074
000FFFD1D0
002FE6DB40
001F42FD00
000507E000
00007FD000
0007EBC000
002F4B8000
00FD0F8000
03F01F4000
0BC03E0000
1F407D0000
3E00FC0000
BC01F80000
F803F00000
F40BE00000
F41FC00000
F87F400000
FFFE000000
7FF4000000
1A90000000
ENDCHAR
STARTCHAR braceleft
ENCODING 123
SWIDTH 243 0
DWIDTH 9 0
BBX 13 35 -1 -5
BITMAP
00001B80
0000BF40
0002FF00
000BFE00
000FD000
001F4000
001F0000
001F0000
001F0000
001F0000
001F0000
001F0000
001F0000
002E0000
00BD0000
07F40000
0FD00000
0BD00000
02E00000
01F00000
01F00000
02E00000
03D00000
0BC00000
0F400000
2E000000
3D000000
7C000000
BC000000
BE000000
BF900000
3FE00000
1FD00000
07C00000
00400000
ENDCHAR
STARTCHAR bar
ENCODING 124
SWIDTH 253 0
DWIDTH 9 0
BBX 9 28 0 -1
BITMAP
000140
000BC0
001F80
001F40
002F00
003E00
003E00
007D00
00BC00
00F800
00F400
01F000
02F000
02E000
03D000
07D000
0BC000
0B8000
0F8000
1F4000
1F4000
2F0000
3F0000
7E0000
7E0000
BD0000
FD0000
940000
ENDCHAR
STARTCHAR braceright
ENCODING 125
SWIDTH 243 0
DWIDTH 9 0
BBX 13 35 -4 -5
BITMAP
0000A400
0000FD00
0000FF40
0001FF80
00002FC0
00000FC0
00000BC0
00000B80
00001F40
00003E00
00007C00
0000F800
0001F000
0001E000
0002E000
0001E000
0000F400
00007D00
0002FC00
000BD000
000F4000
001F0000
002E0000
002E0000
002E0000
002E0000
002E0000
002E0000
003E0000
00BE0000
06FD0000
2FF80000
3FE00000
7E400000
10000000
ENDCHAR
STARTCHAR asciitilde
ENCODING 126
SWIDTH 329 0
DWIDTH 12 0
BBX 14 4 -1 11
BITMAP
06940090
7FFF9BD0
FFFFFFD0
B406BE40
ENDCHAR
STARTCHAR uni00A0
ENCODING 160
SWIDTH 280 0
DWIDTH 10 0
BBX 1 1 0 0
BITMAP
00
ENDCHAR
STARTCHAR exclamdown
ENCODING 161
SWIDTH 249 0
DWIDTH 9 0
BBX 11 28 -1 -1
BITMAP
000050
0007F8
000FF4
000FD0
000000
000000
000680
001F80
002F40
002F00
003E00
007E00
00BD00
00FC00
01FC00
01F800
02F400
03F400
07F000
0BE000
0BE000
0FD000
1FC000
2FC000
3F8000
7F4000
7F4000
690000
ENDCHAR
STARTCHAR cent
ENCODING 162
SWIDTH 322 0
DWIDTH 12 0
BBX 12 27 0 -1
BITMAP
000074
0000F0
0000E0
0002E4
002FBD
00BD1E
02F41F
07D0BF
0F80FF
2F41FE
3E01FC
7D0050
BC0000
F80000
F40000
F40000
F40000
F40000
F40050
B801D0
7D0740
2FFD00
07E400
07C000
078000
0B4000
040000
ENDCHAR
STARTCHAR sterling
ENCODING 163
SWIDTH 318 0
DWIDTH 11 0
BBX 15 23 -2 2
BITMAP
00001540
0000BFE0
0003E4B4
000B8078
000F0078
001E00F4
002D1BF0
003D1FD0
003C0500
007C0000
00B80000
00F40000
1FFFF000
0BFFE000
02E54000
03D00000
07C00000
0B800000
0F400000
1E000000
7D6AF800
BFFFFC00
7E955800
ENDCHAR
STARTCHAR currency
ENCODING 164
SWIDTH 347 0
DWIDTH 13 0
BBX 13 12 0 7
BITMAP
0F000280
0F854F80
07FFFE00
02F5F800
02D0B400
0380B000
0740E000
0B42D000
0FEBD000
7FFEF000
F810B800
D0003800
ENDCHAR
STARTCHAR yen
ENCODING 165
SWIDTH 326 0
DWIDTH 12 0
BBX 14 22 0 2
BITMAP
01800060
0B8002F0
0BC003D0
07C00B80
07C00F40
03D02E00
02D07C00
02E1F400
01F3D000
00FF8000
007E0000
007C0000
01BD4000
2FFFD000
26F58000
02F50000
BFFF4000
ABEA0000
07C00000
07C00000
0B800000
0A000000
ENDCHAR
STARTCHAR brokenbar
ENCODING 166
SWIDTH 253 0
DWIDTH 9 0
BBX 9 28 0 -1
BITMAP
000140
000BC0
001F80
001F40
002F00
003E00
003E00
007D00
00BC00
00F800
00F400
01F400
004000
000000
000000
028000
07C000
0B8000
0F8000
1F4000
1F4000
2F0000
3F0000
7E0000
7E0000
BD0000
FD0000
540000
ENDCHAR
STARTCHAR section
ENCODING 167
SWIDTH 297 0
DWIDTH 11 0
BBX 14 28 -1 -1
BITMAP
00006900
000B9780
003E03D0
00B803D0
01F403D0
01F00BC0
01F40A40
00B80000
003E0000
000B8000
001BE000
02F9F400
0BD0B800
1F407C00
2F007C00
2E00B800
1F01F400
0B9BD000
02F90000
00B80000
002F0000
000B8000
7D07D000
F807D000
F407C000
F40F8000
797E0000
0AA40000
ENDCHAR
STARTCHAR dieresis
ENCODING 168
SWIDTH 567 0
DWIDTH 20 0
BBX 10 4 7 20
BITMAP
1A4190
3F4BF0
7E0BD0
100000
ENDCHAR
STARTCHAR copyright
ENCODING 169
SWIDTH 456 0
DWIDTH 16 0
BBX 18 19 0 8
BITMAP
0000040000
0006FFE000
002F95BC00
00B8001F00
02E01A0780
07C0BF83C0
0F43E2C2D0
2E0B87D1E0
3D0F0241E0
3C2E0001E0
7C2D0002E0
7C2C0043D0
7C2C0207C0
3C1E190B40
2D0BF41F00
1F01507D00
07D001F400
01FA6F8000
002BF90000
ENDCHAR
STARTCHAR ordfeminine
ENCODING 170
SWIDTH 373 0
DWIDTH 13 0
BBX 17 19 -2 -1
BITMAP
0000500000
0007F80000
001FBC0000
007D7D0000
01F41F0000
03E01E0000
07C02E0000
0F803D0000
0F403C0040
1F40BC0280
2F41F80700
1F9BB82D00
1FFE3EB400
0BF41F9000
0100000000
0000000000
2FFFFF4000
BFFFFF4000
EA55550000
ENDCHAR
STARTCHAR guillemotleft
ENCODING 171
SWIDTH 346 0
DWIDTH 12 0
BBX 14 15 -2 -1
BITMAP
000680A0
001F03D0
007D0F40
00F42E00
03E0BC00
0FC2F400
2F4BD000
7E0FC000
2F0BD000
0F43E000
0BC1F000
03D0B400
01E07C00
00B42D00
00140500
ENDCHAR
STARTCHAR logicalnot
ENCODING 172
SWIDTH 512 0
DWIDTH 18 0
BBX 18 9 0 6
BITMAP
0155555400
7FFFFFFFE0
FFFFFFFFE0
A5400003D0
00000003D0
00000007C0
0000000B80
0000000F40
0000002E00
ENDCHAR
STARTCHAR sfthyphen
ENCODING 173
SWIDTH 353 0
DWIDTH 13 0
BBX 13 4 -1 9
BITMAP
056AA940
3FFFFFC0
7FFFEB80
54000000
ENDCHAR
STARTCHAR registered
ENCODING 174
SWIDTH 456 0
DWIDTH 16 0
BBX 18 19 0 8
BITMAP
0000040000
0006FFE000
002F95BC00
00B8001F00
02E1BF4780
07C7E7C3C0
0F46C2C2D0
2E02C2C1E0
3D038781E0
3C079E01E0
7C0FF802E0
7C0B7803D0
7C0E2C07C0
3C1E1D0B40
2D2D0F9F00
1F00057D00
07D001F400
01FA6F8000
002BF90000
ENDCHAR
STARTCHAR macron
ENCODING 175
SWIDTH 567 0
DWIDTH 20 0
BBX 9 3 8 21
BITMAP
15A540
BFFF80
FFAF40
ENDCHAR
STARTCHAR degree
ENCODING 176
SWIDTH 144 0
DWIDTH 5 0
BBX 5 5 2 19
BITMAP
2F40
B6C0
A280
7F40
0400
ENDCHAR
STARTCHAR twosuperior
ENCODING 178
SWIDTH 268 0
DWIDTH 10 0
BBX 11 18 0 9
BITMAP
000690
007EF4
01F4BC
03E0BC
03D0B8
02D0F8
0001F0
0003E0
000B80
001F00
00BD00
02F400
0BD000
2F0000
7EAE40
7FFFC0
3EAB80
000040
ENDCHAR
STARTCHAR threesuperior
ENCODING 179
SWIDTH 262 0
DWIDTH 9 0
BBX 11 18 0 9
BITMAP
001A80
00FFF4
03F4B8
07D07C
07C0B8
07E0F4
0002E0
000BC0
007F00
00FFC0
0042E0
0002E0
0002D0
2D07D0
7E0B80
3FBF00
1FF800
014000
ENDCHAR
STARTCHAR acute
ENCODING 180
SWIDTH 567 0
DWIDTH 20 0
BBX 7 5 9 20
BITMAP
0010
01F4
0BF4
7FD0
BD00
ENDCHAR
STARTCHAR mu
ENCODING 181
SWIDTH 453 0
DWIDTH 16 0
BBX 21 20 -5 -7
BITMAP
0006C01F0000
000FC02F0000
001F407F0000
002F00BE0000
003E00BE0000
007D00FD0000
00BC00FC0040
00FC01F400C0
00F801F00280
01F802F40700
02FD0BF81D00
03FFFE7EF800
03FFF42FE000
07D000050000
0BD000000000
0FC000000000
1F8000000000
2F4000000000
3F0000000000
780000000000
ENDCHAR
STARTCHAR paragraph
ENCODING 182
SWIDTH 411 0
DWIDTH 15 0
BBX 17 28 1 -1
BITMAP
0000040400
00003D2C00
006FFFFF80
06FFFFFF40
1FFFFAF900
3FFFF4F400
7FFFF0F000
BFFFE1E000
FFFFE2E000
FFFFD2D000
BFFFC3C000
7FFFC7C000
2FFF878000
07FF4B4000
005F0B4000
001F0F0000
002E1E0000
002D1E0000
003D2D0000
007C3C0000
00B83C0000
00B8780000
00F4B40000
01F0B40000
02E0F00000
03E1E00000
07D3D00000
0641000000
ENDCHAR
STARTCHAR periodcentered
ENCODING 183
SWIDTH 168 0
DWIDTH 6 0
BBX 5 4 0 10
BITMAP
1A80
7FC0
BF80
2900
ENDCHAR
STARTCHAR cedilla
ENCODING 184
SWIDTH 567 0
DWIDTH 20 0
BBX 7 9 9 -5
BITMAP
0500
1F00
2D00
7E90
6BF4
00F8
01F4
1BD0
A900
ENDCHAR
STARTCHAR onesuperior
ENCODING 185
SWIDTH 150 0
DWIDTH 5 0
BBX 6 17 1 10
BITMAP
0040
03E0
0FE0
0BD0
07C0
07C0
0B80
0B40
0F00
1F00
1E00
2D00
3C00
7C00
B800
B800
B800
ENDCHAR
STARTCHAR ordmasculine
ENCODING 186
SWIDTH 319 0
DWIDTH 12 0
BBX 16 18 -2 -1
BITMAP
001A8000
00BFF400
01F47C00
03E03D0A
07E02D2C
0FF02EF0
0FB97F80
1F2FFD00
1F06BC00
1F00F400
0F02F000
0B9BD000
03FF4000
00540000
00000000
6FFFF400
FFFFF400
E9555000
ENDCHAR
STARTCHAR guillemotright
ENCODING 187
SWIDTH 346 0
DWIDTH 12 0
BBX 14 15 -3 -1
BITMAP
0280A000
02D0B800
00F03D00
00B82E00
007D1F40
003E0BC0
001F47E0
001F87E0
003E0FC0
00BC2F40
02F07D00
07C1F400
1F43D000
3D0B4000
50050000
ENDCHAR
STARTCHAR onequarter
ENCODING 188
SWIDTH 579 0
DWIDTH 21 0
BBX 21 28 -1 -1
BITMAP
000500000140
002F00001F40
00BE00007E00
007D0000BC00
003D0002F400
007C0007D000
0078000F8000
00B4002F0000
00F4007D0000
00F000F80000
01E002E00000
02D007C02F40
03D00F40BF40
07C02E01FF00
0BC07C07EE00
0BC0F40F9D00
0BC2E02E2D00
0007C0B83C00
001F42F07800
002E07FFFE00
00BD03FFFE00
01F80150F900
03F00001F000
0BD00002F000
1F800002E000
3F000003E000
BE000003E000
940000018000
ENDCHAR
STARTCHAR onehalf
ENCODING 189
SWIDTH 603 0
DWIDTH 22 0
BBX 22 28 -1 -1
BITMAP
000500000140
002F00001F80
00BF00003E00
007E0000BC00
003D0001F400
003C0003E000
007C000BC000
0078001F4000
00B4003D0000
00F400B80000
01F001F00500
01E007D0BFD0
02D00F83E7E0
03D02F0B82E0
07C07D1F42E0
0BC0F81F43E0
07C2F00507D0
0007D0000B80
000F80001F00
002F00007D00
007D0001F400
00F80007E000
02F0001F8000
07E0007D0000
0FC000F55400
2F4002FFFE00
7E0001FFFF00
640000500500
ENDCHAR
STARTCHAR threequarters
ENCODING 190
SWIDTH 669 0
DWIDTH 24 0
BBX 23 28 0 -1
BITMAP
001A80000014
00FFF40001F8
03F4B80003F0
07D07C000BD0
07C0B8001F40
07E0F4003E00
0002E000BC00
000BC001F400
007F0003E000
00FFC00B8000
0042E01F0000
0002E03D01B8
0002D0B807F4
2D07D1F00FF4
7E0B87D03EF0
3FBF0B80B9E0
1FF82F02F2D0
01407D0BC2D0
0000F82F43C0
0002F03FFFF0
0007D02FFFF0
000F80050B90
002F40000F40
007E00001F40
00FC00002F00
02F400002F00
07E000003F00
064000001900
ENDCHAR
STARTCHAR questiondown
ENCODING 191
SWIDTH 413 0
DWIDTH 15 0
BBX 18 28 -2 -1
BITMAP
0000000A40
0000007FD0
000000BFC0
0000006E40
0000000000
0000000500
0000007D00
000000FC00
000001FC00
000002F800
000002F400
000003F000
00001BF000
0002FFD000
001FF90000
00BE400000
02F8000000
0BE0000000
1FC0000000
3F40000000
7F00019000
BE0002F400
BD0001F800
BD0002F800
BE000BF400
7F906FD000
1FFFFE4000
02BFA40000
ENDCHAR
STARTCHAR Agrave
ENCODING 192
SWIDTH 552 0
DWIDTH 20 0
BBX 23 43 -4 -9
BITMAP
000000002400
00000000BE00
000000007F80
000000000BF0
0000000000B4
000000000000
000000000000
000000000540
00000000BFD0
00000007FBF0
0000001F82F0
0000007E02F0
000000F802E0
000002F403E0
000003E003D0
00000BD007D0
00001F800BC0
00002F400BC0
00003F000F80
00007E001F80
0000BD001F40
0000FC002F40
0002F8002F00
0003F4003F00
0007F0007E00
000BE1507E00
000FFFFFFE50
01BFFFFFFFD0
2FFFE95AFF40
297F8000FD00
007F4001FC00
00BF0001F800
00FE0002F800
01FD0002F400
03FD0003F400
07FC0003F400
0BF80003F400
0FF40003F400
2FE00003F800
7F800003FC00
54000003FD00
00000002F900
000000004000
ENDCHAR
STARTCHAR Aacute
ENCODING 193
SWIDTH 552 0
DWIDTH 20 0
BBX 23 43 -4 -9
BITMAP
000000000010
0000000001F4
000000000BF4
000000007FD0
00000000B900
000000000000
000000000000
000000000540
00000000BFD0
00000007FBF0
0000001F82F0
0000007E02F0
000000F802E0
000002F403E0
000003E003D0
00000BD007D0
00001F800BC0
00002F400BC0
00003F000F80
00007E001F80
0000BD001F40
0000FC002F40
0002F8002F00
0003F4003F00
0007F0007E00
000BE1507E00
000FFFFFFE50
01BFFFFFFFD0
2FFFE95AFF40
297F8000FD00
007F4001FC00
00BF0001F800
00FE0002F800
01FD0002F400
03FD0003F400
07FC0003F400
0BF80003F400
0FF40003F400
2FE00003F800
7F800003FC00
54000003FD00
00000002F900
000000004000
ENDCHAR
STARTCHAR Acircumflex
ENCODING 194
SWIDTH 552 0
DWIDTH 20 0
BBX 24 42 -4 -9
BITMAP
0000000002A0
000000001FF4
000000007DF8
00000002F47E
000000054015
000000000000
000000000540
00000000BFD0
00000007FBF0
0000001F82F0
0000007E02F0
000000F802E0
000002F403E0
000003E003D0
00000BD007D0
00001F800BC0
00002F400BC0
00003F000F80
00007E001F80
0000BD001F40
0000FC002F40
0002F8002F00
0003F4003F00
0007F0007E00
000BE1507E00
000FFFFFFE50
01BFFFFFFFD0
2FFFE95AFF40
297F8000FD00
007F4001FC00
00BF0001F800
00FE0002F800
01FD0002F400
03FD0003F400
07FC0003F400
0BF80003F400
0FF40003F400
2FE00003F800
7F800003FC00
54000003FD00
00000002F900
000000004000
ENDCHAR
STARTCHAR Atilde
ENCODING 195
SWIDTH 552 0
DWIDTH 20 0
BBX 26 41 -4 -9
BITMAP
00000001A90080
00000007FFFBD0
0000000B96FF40
00000001000400
00000000000000
00000000054000
00000000BFD000
00000007FBF000
0000001F82F000
0000007E02F000
000000F802E000
000002F403E000
000003E003D000
00000BD007D000
00001F800BC000
00002F400BC000
00003F000F8000
00007E001F8000
0000BD001F4000
0000FC002F4000
0002F8002F0000
0003F4003F0000
0007F0007E0000
000BE1507E0000
000FFFFFFE5000
01BFFFFFFFD000
2FFFE95AFF4000
297F8000FD0000
007F4001FC0000
00BF0001F80000
00FE0002F80000
01FD0002F40000
03FD0003F40000
07FC0003F40000
0BF80003F40000
0FF40003F40000
2FE00003F80000
7F800003FC0000
54000003FD0000
00000002F90000
00000000400000
ENDCHAR
STARTCHAR Adieresis
ENCODING 196
SWIDTH 552 0
DWIDTH 20 0
BBX 25 41 -4 -9
BITMAP
00000000680640
00000000FD2FC0
00000001F82F40
00000000400000
00000000000000
00000000054000
00000000BFD000
00000007FBF000
0000001F82F000
0000007E02F000
000000F802E000
000002F403E000
000003E003D000
00000BD007D000
00001F800BC000
00002F400BC000
00003F000F8000
00007E001F8000
0000BD001F4000
0000FC002F4000
0002F8002F0000
0003F4003F0000
0007F0007E0000
000BE1507E0000
000FFFFFFE5000
01BFFFFFFFD000
2FFFE95AFF4000
297F8000FD0000
007F4001FC0000
00BF0001F80000
00FE0002F80000
01FD0002F40000
03FD0003F40000
07FC0003F40000
0BF80003F40000
0FF40003F40000
2FE00003F80000
7F800003FC0000
54000003FD0000
00000002F90000
00000000400000
ENDCHAR
STARTCHAR Aring
ENCODING 197
SWIDTH 552 0
DWIDTH 20 0
BBX 22 40 -4 -9
BITMAP
000000000140
000000001FE0
0000000038A0
0000000039E0
000000001F80
00000000BFD0
00000007FBF0
0000001F82F0
0000007E02F0
000000B802E0
000002F403E0
000003E003D0
00000BD007D0
00001F800BC0
00002F400BC0
00003F000F80
00007E001F80
0000BD001F40
0000FC002F40
0002F8002F00
0003F4003F00
0007F0007E00
000BE1507E00
000FFFFFFE50
01BFFFFFFFD0
2FFFE95AFF40
297F8000FD00
007F4001FC00
00BF0001F800
00FE0002F800
01FD0002F400
03FD0003F400
07FC0003F400
0BF80003F400
0FF40003F400
2FE00003F800
7F800003FC00
54000003FD00
00000002F900
000000004000
ENDCHAR
STARTCHAR AE
ENCODING 198
SWIDTH 869 0
DWIDTH 31 0
BBX 36 36 -4 -9
BITMAP
000000000540005540
00000000BFD01BFFE0
00000007FBF0BF95BC
0000001F82F3F9007E
0000007E02FFE0003E
000000F802FFC0003E
000002F403FF40007E
000003E003FE0000BD
00000BD007FD0002FC
00001F800BFD0007F8
00002F400BFC001FE0
00003F000FFC000140
00007E001FFD000000
0000BD001FFE000000
0000FC002FFF000000
0002F8002F2F800000
0003F4003F0BFF8000
0007F0007E1FFFC000
000BE1507FFE5A4000
000FFFFFFFF4000000
01BFFFFFFFC0000000
2FFFE95AFF40000000
297F8000FE00000000
007F4001FD00000040
00BF0001FD00000180
00FE0002FD00000380
01FD0002FD00000B00
03FD0003FE00001E00
07FC0003FF00007C00
0BF80003FF8001F400
0FF40003FFE41BE000
2FE00003FFFFFF8000
7F800003FEFFF90000
54000003FD16500000
00000002F900000000
000000004000000000
ENDCHAR
STARTCHAR Ccedilla
ENCODING 199
SWIDTH 548 0
DWIDTH 20 0
BBX 20 41 0 -14
BITMAP
0000005A40
000007FFE0
00006FD6F8
0001FE00BD
0007F8007E
000FE0007F
002FC000BF
007F4000BF
00FE0000FE
02FD0002FE
03F80007FC
07F4000FF8
0FF00007E0
1FE0000000
2FD0000000
3FC0000000
3F80000000
7F80000000
BF40000000
BF40000000
BF00000000
FF00000000
FF00000000
FE00000000
FE00000000
BF00000100
BF00000700
7F40001E00
3F80007C00
2FD001F400
0FF41BD000
07FFFF4000
00BFF90000
001F500000
002D000000
003E500000
007FF40000
0001F80000
0001F40000
001BD00000
00B9000000
ENDCHAR
STARTCHAR Egrave
ENCODING 200
SWIDTH 523 0
DWIDTH 19 0
BBX 21 41 -1 -7
BITMAP
000000240000
000000FE0000
000000BF8000
0000000BF000
00000000B400
000000000000
000000000000
000000154000
000006FFF400
00007FE57D00
0002FD002F00
000BF4002F40
001FD0002F40
003F80003F40
00BF40007F00
00FF0000FE00
01FE0002FC00
01FE000BF400
01FE00015000
00FE00000000
00BF00000000
007F80000000
001FD0000000
0007FFE00000
001BFFE00000
00BF5A800000
03F800000000
0FE000000000
2F8000000000
7F4000000000
BF0000000000
FE000000D000
FE000001C000
FF0000038000
FF00000B4000
BF80002E0000
7FD000BC0000
2FF907F40000
0BFFFFD00000
01FFFE000000
001650000000
ENDCHAR
STARTCHAR Eacute
ENCODING 201
SWIDTH 523 0
DWIDTH 19 0
BBX 21 41 -1 -7
BITMAP
000000001400
00000000BC00
00000007FC00
0000002FE000
0000003E4000
000000000000
000000000000
000000154000
000006FFF400
00007FE57D00
0002FD002F00
000BF4002F40
001FD0002F40
003F80003F40
00BF40007F00
00FF0000FE00
01FE0002FC00
01FE000BF400
01FE00015000
00FE00000000
00BF00000000
007F80000000
001FD0000000
0007FFE00000
001BFFE00000
00BF5A800000
03F800000000
0FE000000000
2F8000000000
7F4000000000
BF0000000000
FE000000D000
FE000001C000
FF0000038000
FF00000B4000
BF80002E0000
7FD000BC0000
2FF907F40000
0BFFFFD00000
01FFFE000000
001650000000
ENDCHAR
STARTCHAR Ecircumflex
ENCODING 202
SWIDTH 523 0
DWIDTH 19 0
BBX 21 40 -1 -7
BITMAP
00000001A400
0000000BFC00
0000002F7D00
000001F82F40
000001500540
000000000000
000000154000
000006FFF400
00007FE57D00
0002FD002F00
000BF4002F40
001FD0002F40
003F80003F40
00BF40007F00
00FF0000FE00
01FE0002FC00
01FE000BF400
01FE00015000
00FE00000000
00BF00000000
007F80000000
001FD0000000
0007FFE00000
001BFFE00000
00BF5A800000
03F800000000
0FE000000000
2F8000000000
7F4000000000
BF0000000000
FE000000D000
FE000001C000
FF0000038000
FF00000B4000
BF80002E0000
7FD000BC0000
2FF907F40000
0BFFFFD00000
01FFFE000000
001650000000
ENDCHAR
STARTCHAR Edieresis
ENCODING 203
SWIDTH 523 0
DWIDTH 19 0
BBX 21 39 -1 -7
BITMAP
000000680640
000001FD2FC0
000001F83F40
000000400000
000000000000
000000154000
000006FFF400
00007FE57D00
0002FD002F00
000BF4002F40
001FD0002F40
003F80003F40
00BF40007F00
00FF0000FE00
01FE0002FC00
01FE000BF400
01FE00015000
00FE00000000
00BF00000000
007F80000000
001FD0000000
0007FFE00000
001BFFE00000
00BF5A800000
03F800000000
0FE000000000
2F8000000000
7F4000000000
BF0000000000
FE000000D000
FE000001C000
FF0000038000
FF00000B4000
BF80002E0000
7FD000BC0000
2FF907F40000
0BFFFFD00000
01FFFE000000
001650000000
ENDCHAR
STARTCHAR Igrave
ENCODING 204
SWIDTH 537 0
DWIDTH 19 0
BBX 22 41 -3 -7
BITMAP
000000018000
00000003F400
00000002FE00
000000006F80
0000000006C0
000000000000
000000000000
000000001400
00000002FF00
0000001FEF40
0000007F8F80
000000FE0F80
000002FC1F40
000003F41F40
000007F02F40
00000BE02F40
00000BE03F00
00000FD07F00
00000FD07E00
00000BC0BE00
00000BC0FD00
000007C1FC00
000007D1FC00
000003E2F800
000001C3F400
00000007F000
0000015BF950
0006BFFFFFE0
007FFFAFD400
07FF901F8000
1FF4002F4000
3FC0003F0000
7F40007E0000
BF0000BC0000
BF0000F80000
7F4002F00000
2FC003E00000
1FE00B800000
07FD6F000000
00BFF8000000
000690000000
ENDCHAR
STARTCHAR Iacute
ENCODING 205
SWIDTH 537 0
DWIDTH 19 0
BBX 22 41 -3 -7
BITMAP
000000000050
0000000002F0
000000001FF0
000000007F80
00000000F900
000000000000
000000000000
000000001400
00000002FF00
0000001FEF40
0000007F8F80
000000FE0F80
000002FC1F40
000003F41F40
000007F02F40
00000BE02F40
00000BE03F00
00000FD07F00
00000FD07E00
00000BC0BE00
00000BC0FD00
000007C1FC00
000007D1FC00
000003E2F800
000001C3F400
00000007F000
0000015BF950
0006BFFFFFE0
007FFFAFD400
07FF901F8000
1FF4002F4000
3FC0003F0000
7F40007E0000
BF0000BC0000
BF0000F80000
7F4002F00000
2FC003E00000
1FE00B800000
07FD6F000000
00BFF8000000
000690000000
ENDCHAR
STARTCHAR Icircumflex
ENCODING 206
SWIDTH 537 0
DWIDTH 19 0
BBX 24 40 -3 -7
BITMAP
0000000002A0
000000001FF4
000000007DBC
00000002F47E
000000014015
000000000000
000000001400
00000002FF00
0000001FEF40
0000007F8F80
000000FE0F80
000002FC1F40
000003F41F40
000007F02F40
00000BE02F40
00000BE03F00
00000FD07F00
00000FD07E00
00000BC0BE00
00000BC0FD00
000007C1FC00
000007D1FC00
000003E2F800
000001C3F400
00000007F000
0000015BF950
0006BFFFFFE0
007FFFAFD400
07FF901F8000
1FF4002F4000
3FC0003F0000
7F40007E0000
BF0000BC0000
BF0000F80000
7F4002F00000
2FC003E00000
1FE00B800000
07FD6F000000
00BFF8000000
000690000000
ENDCHAR
STARTCHAR Idieresis
ENCODING 207
SWIDTH 537 0
DWIDTH 19 0
BBX 24 39 -3 -7
BITMAP
00000001A019
00000003F4BF
00000007E0BD
000000010000
000000000000
000000001400
00000002FF00
0000001FEF40
0000007F8F80
000000FE0F80
000002FC1F40
000003F41F40
000007F02F40
00000BE02F40
00000BE03F00
00000FD07F00
00000FD07E00
00000BC0BE00
00000BC0FD00
000007C1FC00
000007D1FC00
000003E2F800
000001C3F400
00000007F000
0000015BF950
0006BFFFFFE0
007FFFAFD400
07FF901F8000
1FF4002F4000
3FC0003F0000
7F40007E0000
BF0000BC0000
BF0000F80000
7F4002F00000
2FC003E00000
1FE00B800000
07FD6F000000
00BFF8000000
000690000000
ENDCHAR
STARTCHAR Eth
ENCODING 208
SWIDTH 632 0
DWIDTH 23 0
BBX 23 34 -1 -7
BITMAP
000015500000
0002FFFE4000
001FFFFFE000
003FE55BFC00
003E0000BF00
002400003F80
0000B8001FC0
0007F4000FE0
0007F4000BF0
0007F00007F0
000BF00007F4
000BE00007F4
000FE00007F4
000FD00007F4
001FC00007F4
056FD54007F4
7FFFFF800BF4
BFFFFF400FF0
957F00000FE0
007F00001FD0
00BE00002FC0
00BD00003F80
00FC0000BF00
01F80000FE00
02F40002FC00
03F40007F400
07F0000FE000
0BE0002FC000
0FD000BF0000
1FC002FC0000
3FC02FE00000
2FFAFF400000
07FFF8000000
006940000000
ENDCHAR
STARTCHAR Ntilde
ENCODING 209
SWIDTH 541 0
DWIDTH 19 0
BBX 25 38 -2 -7
BITMAP
000001A9008000
00000BFFEBC000
00000B96FF4000
00000000040000
00000000001900
0001B40001FF40
0007F80007FF80
0007F8000FE380
000BF8001F8380
000FF8002F4780
000FFC003F0B40
001FFC007E1F00
002FBC00BD3D00
002E7C00FDF800
003D7C05FFE000
007D7C0BFF4000
00BC7C01F80000
00B83D02F40000
00F83D02F40000
01F43D02F00000
02F03D03F00000
02F03D03E00000
03E03D07E00000
07E03D07D00000
0BD02E0BC00000
0BD02E0FC00000
0FC02E0F800000
1FC02E1F800000
1F802F2F400000
2F801F2F000000
3F801F7F000000
3F800FBE000000
7F800FFD000000
7F800BFC000000
7F8007FC000000
7F8003F8000000
3F8002F4000000
05000040000000
ENDCHAR
STARTCHAR Ograve
ENCODING 210
SWIDTH 567 0
DWIDTH 20 0
BBX 19 41 0 -7
BITMAP
0000009000
000003F800
000002FE00
0000002FC0
00000002D0
0000000000
0000000000
00000A9400
00007FFF40
0001FFEFC0
0003FF4BD0
000FE503E0
002F8003F0
007F4002F4
00BE0002F4
01FC0002F4
02F80002F8
03F40002F8
07F00002F8
0BE00002F8
0FD00002F8
1FC00002F4
2F800003F4
3F800003F4
3F400003F0
7F400007F0
7F00000BE0
7F00000BD0
BF00000FD0
BE00001FC0
BE00002F80
BE00003F00
BE0000BE00
7E0000FD00
7F0002F800
3F0003F000
2F400FD000
1F802F8000
0BE5FE0000
02FFF40000
006E400000
ENDCHAR
STARTCHAR Oacute
ENCODING 211
SWIDTH 567 0
DWIDTH 20 0
BBX 19 41 0 -7
BITMAP
0000000140
00000007C0
0000002FC0
000001FE40
000003E400
0000000000
0000000000
00000A9400
00007FFF40
0001FFEFC0
0003FF4BD0
000FE503E0
002F8003F0
007F4002F4
00BE0002F4
01FC0002F4
02F80002F8
03F40002F8
07F00002F8
0BE00002F8
0FD00002F8
1FC00002F4
2F800003F4
3F800003F4
3F400003F0
7F400007F0
7F00000BE0
7F00000BD0
BF00000FD0
BE00001FC0
BE00002F80
BE00003F00
BE0000BE00
7E0000FD00
7F0002F800
3F0003F000
2F400FD000
1F802F8000
0BE5FE0000
02FFF40000
006E400000
ENDCHAR
STARTCHAR Ocircumflex
ENCODING 212
SWIDTH 567 0
DWIDTH 20 0
BBX 19 40 0 -7
BITMAP
0000001A40
000000BF80
000002E7D0
00001F82F0
0000150054
0000000000
00000A9400
00007FFF40
0001FFEFC0
0003FF4BD0
000FE503E0
002F8003F0
007F4002F4
00BE0002F4
01FC0002F4
02F80002F8
03F40002F8
07F00002F8
0BE00002F8
0FD00002F8
1FC00002F4
2F800003F4
3F800003F4
3F400003F0
7F400007F0
7F00000BE0
7F00000BD0
BF00000FD0
BE00001FC0
BE00002F80
BE00003F00
BE0000BE00
7E0000FD00
7F0002F800
3F0003F000
2F400FD000
1F802F8000
0BE5FE0000
02FFF40000
006E400000
ENDCHAR
STARTCHAR Otilde
ENCODING 213
SWIDTH 567 0
DWIDTH 20 0
BBX 19 39 0 -7
BITMAP
00001A9008
0000BFFEBC
0000B96FF4
0000000040
0000000000
00000A9400
00007FFF40
0001FFEFC0
0003FF4BD0
000FE503E0
002F8003F0
007F4002F4
00BE0002F4
01FC0002F4
02F80002F8
03F40002F8
07F00002F8
0BE00002F8
0FD00002F8
1FC00002F4
2F800003F4
3F800003F4
3F400003F0
7F400007F0
7F00000BE0
7F00000BD0
BF00000FD0
BE00001FC0
BE00002F80
BE00003F00
BE0000BE00
7E0000FD00
7F0002F800
3F0003F000
2F400FD000
1F802F8000
0BE5FE0000
02FFF40000
006E400000
ENDCHAR
STARTCHAR Odieresis
ENCODING 214
SWIDTH 567 0
DWIDTH 20 0
BBX 19 39 0 -7
BITMAP
0000068064
00001FD2FC
00002F83F4
0000040000
0000000000
00000A9400
00007FFF40
0001FFEFC0
0003FF4BD0
000FE503E0
002F8003F0
007F4002F4
00BE0002F4
01FC0002F4
02F80002F8
03F40002F8
07F00002F8
0BE00002F8
0FD00002F8
1FC00002F4
2F800003F4
3F800003F4
3F400003F0
7F400007F0
7F00000BE0
7F00000BD0
BF00000FD0
BE00001FC0
BE00002F80
BE00003F00
BE0000BE00
7E0000FD00
7F0002F800
3F0003F000
2F400FD000
1F802F8000
0BE5FE0000
02FFF40000
006E400000
ENDCHAR
STARTCHAR multiply
ENCODING 215
SWIDTH 281 0
DWIDTH 10 0
BBX 13 13 -1 6
BITMAP
01400500
0BD02F40
03E07E00
01F1F800
00FBE000
00FF8000
00BE0000
00BC0000
02FD0000
0BEE0000
1F1F0000
7D0F8000
B4078000
ENDCHAR
STARTCHAR Oslash
ENCODING 216
SWIDTH 597 0
DWIDTH 22 0
BBX 23 36 -1 -8
BITMAP
000000000010
000001B502F4
00000BFFEFE0
00002FFFFFC0
0000BFD0FF40
0001FC80BE00
0003F400FD00
000BE002FE00
001FC007FE00
002F800BFF00
007F001FFF00
00BE003F7F00
00FD007E3F00
01FC00FC3F00
02F802F87F00
03F403F07F00
03F00BD07F00
07F01F80BE00
0BE02F40BE00
0BE07E00FD00
0FD0FC00FD00
0FD1F801FC00
0FD3F002F800
0FDBE003F400
1FDFC007F000
1FEF800BE000
0FFF000FD000
0FFE002F8000
0FFC003F4000
0BF800BE0000
0BF001F80000
0FF407F00000
2FFD6FD00000
3FBFFE000000
BF4AA4000000
640000000000
ENDCHAR
STARTCHAR Ugrave
ENCODING 217
SWIDTH 574 0
DWIDTH 21 0
BBX 22 40 0 -7
BITMAP
000000900000
000003F80000
000002FE0000
0000002FC000
00000002D000
000000000000
000000000000
0001A4000BF0
000FF0001FE0
002FE0002FD0
003FC0003FC0
003F80003F80
007F40007F40
00BF0000BF00
00FE0000FE00
01FD0001FD00
02FC0001FC00
03F80002F800
03F40003F400
07F40007F400
0BF00007F000
0BE0000BE000
0FD0000FD000
1FC0000FC000
1F80001F8000
2F80002F8000
2F40002F4000
3F00003F4000
7F00007F0000
7E0000BF0000
7E0000FE0000
BE0001FE0000
BE0003FE0000
BE0007FD0000
BE000FFD0000
7F002F7D0000
7F80BD7E0000
2FFFF47E0000
0BFF802F0000
016500040000
ENDCHAR
STARTCHAR Uacute
ENCODING 218
SWIDTH 574 0
DWIDTH 21 0
BBX 22 40 0 -7
BITMAP
000000001400
00000000BC00
00000007FC00
0000001FE000
0000003E4000
000000000000
000000000000
0001A4000BF0
000FF0001FE0
002FE0002FD0
003FC0003FC0
003F80003F80
007F40007F40
00BF0000BF00
00FE0000FE00
01FD0001FD00
02FC0001FC00
03F80002F800
03F40003F400
07F40007F400
0BF00007F000
0BE0000BE000
0FD0000FD000
1FC0000FC000
1F80001F8000
2F80002F8000
2F40002F4000
3F00003F4000
7F00007F0000
7E0000BF0000
7E0000FE0000
BE0001FE0000
BE0003FE0000
BE0007FD0000
BE000FFD0000
7F002F7D0000
7F80BD7E0000
2FFFF47E0000
0BFF802F0000
016500040000
ENDCHAR
STARTCHAR Ucircumflex
ENCODING 219
SWIDTH 574 0
DWIDTH 21 0
BBX 22 40 0 -7
BITMAP
000000069000
0000002FF000
000000BDF400
000007E0BD00
000005401500
000000000000
000000000000
0001A4000BF0
000FF0001FE0
002FE0002FD0
003FC0003FC0
003F80003F80
007F40007F40
00BF0000BF00
00FE0000FE00
01FD0001FD00
02FC0001FC00
03F80002F800
03F40003F400
07F40007F400
0BF00007F000
0BE0000BE000
0FD0000FD000
1FC0000FC000
1F80001F8000
2F80002F8000
2F40002F4000
3F00003F4000
7F00007F0000
7E0000BF0000
7E0000FE0000
BE0001FE0000
BE0003FE0000
BE0007FD0000
BE000FFD0000
7F002F7D0000
7F80BD7E0000
2FFFF47E0000
0BFF802F0000
016500040000
ENDCHAR
STARTCHAR Udieresis
ENCODING 220
SWIDTH 574 0
DWIDTH 21 0
BBX 22 39 0 -7
BITMAP
000001901800
00000BF0FE00
00000BD1F800
000001000000
000000000000
000000000000
0001A4000BF0
000FF0001FE0
002FE0002FD0
003FC0003FC0
003F80003F80
007F40007F40
00BF0000BF00
00FE0000FE00
01FD0001FD00
02FC0001FC00
03F80002F800
03F40003F400
07F40007F400
0BF00007F000
0BE0000BE000
0FD0000FD000
1FC0000FC000
1F80001F8000
2F80002F8000
2F40002F4000
3F00003F4000
7F00007F0000
7E0000BF0000
7E0000FE0000
BE0001FE0000
BE0003FE0000
BE0007FD0000
BE000FFD0000
7F002F7D0000
7F80BD7E0000
2FFFF47E0000
0BFF802F0000
016500040000
ENDCHAR
STARTCHAR Yacute
ENCODING 221
SWIDTH 532 0
DWIDTH 19 0
BBX 21 40 0 -7
BITMAP
000000004000
00000007D000
0000001FD000
000000BF4000
000002F40000
000000000000
000040000500
002FC0007F40
003F8000BF00
007F4000BE00
00BF0000FE00
00FE0001FD00
01FD0001FC00
02FC0002F800
02F80003F400
03F40003F000
07F00007E000
0BE0000BE000
0BD0000FD000
0FD0001FC000
1FC0002F8000
1F80003F8000
2F80007F4000
2F4000FF0000
2F4002FE0000
2F4007EE0000
2F801F7D0000
2FD5BD7C0000
0FFFF4BC0000
07FF80F80000
005401F40000
000002F00000
000003E00000
00000BC00000
09001F800000
3F407F000000
BFEBFD000000
BFFFF4000000
2FFF80000000
059400000000
ENDCHAR
STARTCHAR Thorn
ENCODING 222
SWIDTH 569 0
DWIDTH 21 0
BBX 22 33 -2 -7
BITMAP
00006D000000
0001FD000000
0001FC000000
0002F8000000
0003F4000000
0007F0000000
0007FBFFE000
000BFFABFD00
006FE400BF00
01FFC0003F80
03FF80001FC0
03FF80000FD0
017F40000FD0
003F00000FD0
007E00001FD0
00BD00001FC0
00BD00002F80
00FC00003F40
01F80000BF00
02F80001FD00
02F40007F800
03F0001FE000
07F0007F8000
07E007FD0000
0BE5BFE00000
0FFFF9000000
1FE940000000
1FC000000000
2FC000000000
3F8000000000
3F8000000000
7F4000000000
140000000000
ENDCHAR
STARTCHAR germandbls
ENCODING 223
SWIDTH 495 0
DWIDTH 18 0
BBX 21 41 -5 -17
BITMAP
0000001A9000
000000FFF400
000003F9BD00
00000BE03E00
00001F807E00
00002F40BD00
00007E00FC00
0000BD02F400
0000BC03F000
0000F807D000
0001F40B8000
0002F00F4000
0003E00F8000
0007D007C000
000BC003E000
000B8001F400
000F4000FD00
041F00007E00
1FAE00002F40
01FE00041FC0
007F407C0FC0
007FD0FD0B40
00B9F4BE1E00
00F47C7FF800
01F02E1FE000
02F01F000000
02E00F400000
03D00B800000
07D00B800000
0BC00B800000
0B800F800000
0F801F400000
1F402F000000
2F007E000000
2E00FC000000
3E02F4000000
7E0BE0000000
7FBFC0000000
7FFF40000000
3FF800000000
1B9000000000
ENDCHAR
STARTCHAR agrave
ENCODING 224
SWIDTH 435 0
DWIDTH 16 0
BBX 20 23 -1 -1
BITMAP
0005000000
001FD00000
001BF40000
0001FD0000
00001E0000
0000000000
0000000000
0001A40000
000BFD0000
007EBD0000
01F87E4000
03F05F4000
0BD01F4000
0F802F0005
2F402E001D
3F003E0038
7E007D00B0
7E00BC02D0
BE02FC0740
7F5F7C1E00
7FFE3EB800
2FF42FE000
0540054000
ENDCHAR
STARTCHAR aacute
ENCODING 225
SWIDTH 435 0
DWIDTH 16 0
BBX 20 23 -1 -1
BITMAP
0000010000
00001F4000
0000BF4000
0006FD0000
000BD00000
0000000000
0000000000
0001A40000
000BFD0000
007EBD0000
01F87E4000
03F05F4000
0BD01F4000
0F802F0005
2F402E001D
3F003E0038
7E007D00B0
7E00BC02D0
BE02FC0740
7F5F7C1E00
7FFE3EB800
2FF42FE000
0540054000
ENDCHAR
STARTCHAR acircumflex
ENCODING 226
SWIDTH 435 0
DWIDTH 16 0
BBX 20 22 -1 -1
BITMAP
0000690000
0001FF0000
000BDF8000
002E07D000
0054015000
0000000000
0001A40000
000BFD0000
007EBD0000
01F87E4000
03F05F4000
0BD01F4000
0F802F0005
2F402E001D
3F003E0038
7E007D00B0
7E00BC02D0
BE02FC0740
7F5F7C1E00
7FFE3EB800
2FF42FE000
0540054000
ENDCHAR
STARTCHAR atilde
ENCODING 227
SWIDTH 435 0
DWIDTH 16 0
BBX 20 21 -1 -1
BITMAP
001A901800
00FFFEF800
00F56FE000
0040010000
0000000000
0001A40000
000BFD0000
007EBD0000
01F87E4000
03F05F4000
0BD01F4000
0F802F0005
2F402E001D
3F003E0038
7E007D00B0
7E00BC02D0
BE02FC0740
7F5F7C1E00
7FFE3EB800
2FF42FE000
0540054000
ENDCHAR
STARTCHAR adieresis
ENCODING 228
SWIDTH 435 0
DWIDTH 16 0
BBX 20 21 -1 -1
BITMAP
0006806400
001FD2FC00
002F83F400
0004000000
0000000000
0001A40000
000BFD0000
007EBD0000
01F87E4000
03F05F4000
0BD01F4000
0F802F0005
2F402E001D
3F003E0038
7E007D00B0
7E00BC02D0
BE02FC0740
7F5F7C1E00
7FFE3EB800
2FF42FE000
0540054000
ENDCHAR
STARTCHAR aring
ENCODING 229
SWIDTH 435 0
DWIDTH 16 0
BBX 20 21 -1 -1
BITMAP
0001FC0000
00039D0000
00075D0000
0002F80000
0000400000
0001A40000
000BFD0000
007EBD0000
01F87E4000
03F05F4000
0BD01F4000
0F802F0005
2F402E001D
3F003E0038
7E007D00B0
7E00BC02D0
BE02FC0740
7F5F7C1E00
7FFE3EB800
2FF42FE000
0540054000
ENDCHAR
STARTCHAR ae
ENCODING 230
SWIDTH 594 0
DWIDTH 21 0
BBX 25 16 -1 -1
BITMAP
0001A401A40000
000BFD1FFC0000
007EBDBDBD0000
01F87EF07C0000
03F06FD0B80000
0BD02FC1F00000
0F802F47D00040
2F403F6F4002C0
3F003FF8000740
7E007FD0001E00
7E00BF00007800
BE02FF0002E000
7F5BAF401B8000
7FFE1FE5BD0000
2FF407FFE00000
054001AA400000
ENDCHAR
STARTCHAR ccedilla
ENCODING 231
SWIDTH 363 0
DWIDTH 13 0
BBX 17 24 -1 -9
BITMAP
000AA00000
007FF80000
01FD3C0000
07F0BC0000
0BD1FC0000
1F81F40000
2F00500180
3E00000380
7E00000B00
7D00002D00
7D0000B400
3E0002D000
3F001B4000
1FE5BD0000
0BFFE00000
01FE400000
01F0000000
02E5000000
02FF800000
001BC00000
000B800000
006F000000
03E4000000
0100000000
ENDCHAR
STARTCHAR egrave
ENCODING 232
SWIDTH 372 0
DWIDTH 13 0
BBX 16 23 0 -1
BITMAP
00240000
00BE0000
007FD000
000BF400
0000B400
00000000
00000000
00069000
007FF000
02F6F400
07D1F400
1F42E000
2F07C000
7D1F4001
BDBD0007
FFE0001D
FF400078
FC0001E0
FC000B80
BE002E00
7F96F400
1FFF8000
06A90000
ENDCHAR
STARTCHAR eacute
ENCODING 233
SWIDTH 372 0
DWIDTH 13 0
BBX 16 23 0 -1
BITMAP
00001400
0000BC00
0002FC00
001FE400
003E4000
00000000
00000000
00069000
007FF000
02F6F400
07D1F400
1F42E000
2F07C000
7D1F4001
BDBD0007
FFE0001D
FF400078
FC0001E0
FC000B80
BE002E00
7F96F400
1FFF8000
06A90000
ENDCHAR
STARTCHAR ecircumflex
ENCODING 234
SWIDTH 372 0
DWIDTH 13 0
BBX 16 22 0 -1
BITMAP
0001A400
000BF800
002E7D00
01F82F00
01500540
00000000
00069000
007FF000
02F6F400
07D1F400
1F42E000
2F07C000
7D1F4001
BDBD0007
FFE0001D
FF400078
FC0001E0
FC000B80
BE002E00
7F96F400
1FFF8000
06A90000
ENDCHAR
STARTCHAR edieresis
ENCODING 235
SWIDTH 372 0
DWIDTH 13 0
BBX 16 21 0 -1
BITMAP
00680640
01FD3F80
02F83F40
00400000
00000000
00069000
007FF000
02F6F400
07D1F400
1F42E000
2F07C000
7D1F4001
BDBD0007
FFE0001D
FF400078
FC0001E0
FC000B80
BE002E00
7F96F400
1FFF8000
06A90000
ENDCHAR
STARTCHAR igrave
ENCODING 236
SWIDTH 274 0
DWIDTH 10 0
BBX 13 23 0 -1
BITMAP
14000000
7F400000
2FD00000
06F80000
00780000
00000000
00000000
00000000
02A00000
0BE00000
0FD00000
1FC00000
2F800000
2F400140
3F000740
3E000E00
3D003C00
7D00F400
7C07D000
7C1F4000
3FFD0000
1FF40000
01400000
ENDCHAR
STARTCHAR iacute
ENCODING 237
SWIDTH 274 0
DWIDTH 10 0
BBX 13 23 0 -1
BITMAP
00001000
0001F400
000BF400
007FD000
00BD0000
00000000
00000000
00000000
02A00000
0BE00000
0FD00000
1FC00000
2F800000
2F400140
3F000740
3E000E00
3D003C00
7D00F400
7C07D000
7C1F4000
3FFD0000
1FF40000
01400000
ENDCHAR
STARTCHAR icircumflex
ENCODING 238
SWIDTH 274 0
DWIDTH 10 0
BBX 13 22 0 -1
BITMAP
00290000
01FF4000
07DF8000
2F47D000
54015000
00000000
00000000
02A00000
0BE00000
0FD00000
1FC00000
2F800000
2F400140
3F000740
3E000E00
3D003C00
7D00F400
7C07D000
7C1F4000
3FFD0000
1FF40000
01400000
ENDCHAR
STARTCHAR idieresis
ENCODING 239
SWIDTH 274 0
DWIDTH 10 0
BBX 13 21 0 -1
BITMAP
0A419000
3F87F400
3E0BE000
10000000
00000000
00000000
02A00000
0BE00000
0FD00000
1FC00000
2F800000
2F400140
3F000740
3E000E00
3D003C00
7D00F400
7C07D000
7C1F4000
3FFD0000
1FF40000
01400000
ENDCHAR
STARTCHAR eth
ENCODING 240
SWIDTH 393 0
DWIDTH 14 0
BBX 18 25 0 -1
BITMAP
0000800000
0001D00000
0000F00000
0000B45400
0000BFFC00
002FFFE400
00BFFD0000
00B93D0000
00002D0000
00042D0000
01FF6D0000
07FBFD0000
0FC0FD0010
2F40BD01D0
7F40BC0B80
BF80BC7D00
FFD0BFE000
F6FFFF4000
F4BFF80000
F406F00000
F403E00000
F80BC00000
BD7F400000
3FFD000000
0690000000
ENDCHAR
STARTCHAR ntilde
ENCODING 241
SWIDTH 461 0
DWIDTH 17 0
BBX 21 21 -1 -1
BITMAP
001A90080000
00BFFEBC0000
00B96FF40000
000000400000
000000000000
000000000000
00642F400000
02F5FFD00000
03F7EFD00000
03FE0BE00000
07FC0BD00000
0BF00BD00240
0BD00FC00700
0F801F801D00
1F802F403800
1F402F00B000
2F003F02D000
3F007E0B4000
7E007FBD0000
BD003FF40000
50001B800000
ENDCHAR
STARTCHAR ograve
ENCODING 242
SWIDTH 393 0
DWIDTH 14 0
BBX 18 23 0 -1
BITMAP
0024000000
00BE000000
007FD00000
000BF40000
0000B40000
0000000000
0000000000
0004000000
01FF400000
07FBE00000
0FC0F40010
2F40B801D0
7F40B80B80
BF80B87D00
FFD0BFE000
F6FFFF4000
F4BFF80000
F406F00000
F403E00000
F80BC00000
BD7F400000
3FFD000000
0690000000
ENDCHAR
STARTCHAR oacute
ENCODING 243
SWIDTH 393 0
DWIDTH 14 0
BBX 18 23 0 -1
BITMAP
0000140000
0000BC0000
0002FC0000
001FE40000
003E400000
0000000000
0000000000
0004000000
01FF400000
07FBE00000
0FC0F40010
2F40B801D0
7F40B80B80
BF80B87D00
FFD0BFE000
F6FFFF4000
F4BFF80000
F406F00000
F403E00000
F80BC00000
BD7F400000
3FFD000000
0690000000
ENDCHAR
STARTCHAR ocircumflex
ENCODING 244
SWIDTH 393 0
DWIDTH 14 0
BBX 18 22 0 -1
BITMAP
0006800000
002FE00000
01FAF40000
07D0F80000
0540150000
0000000000
0004000000
01FF400000
07FBE00000
0FC0F40010
2F40B801D0
7F40B80B80
BF80B87D00
FFD0BFE000
F6FFFF4000
F4BFF80000
F406F00000
F403E00000
F80BC00000
BD7F400000
3FFD000000
0690000000
ENDCHAR
STARTCHAR otilde
ENCODING 245
SWIDTH 393 0
DWIDTH 14 0
BBX 18 21 0 -1
BITMAP
01A9014000
0FFFEF8000
1F5AFE0000
0400100000
0000000000
0004000000
01FF400000
07FBE00000
0FC0F40010
2F40B801D0
7F40B80B80
BF80B87D00
FFD0BFE000
F6FFFF4000
F4BFF80000
F406F00000
F403E00000
F80BC00000
BD7F400000
3FFD000000
0690000000
ENDCHAR
STARTCHAR odieresis
ENCODING 246
SWIDTH 393 0
DWIDTH 14 0
BBX 18 21 0 -1
BITMAP
00A4190000
02F87F4000
03F47E0000
0040000000
0000000000
0004000000
01FF400000
07FBE00000
0FC0F40010
2F40B801D0
7F40B80B80
BF80B87D00
FFD0BFE000
F6FFFF4000
F4BFF80000
F406F00000
F403E00000
F80BC00000
BD7F400000
3FFD000000
0690000000
ENDCHAR
STARTCHAR divide
ENCODING 247
SWIDTH 350 0
DWIDTH 13 0
BBX 13 12 0 7
BITMAP
00054000
001FD000
001F8000
00000000
01555400
BFFFFF40
FFFFFF00
A5500000
00000000
00A80000
01FC0000
01E40000
ENDCHAR
STARTCHAR oslash
ENCODING 248
SWIDTH 406 0
DWIDTH 15 0
BBX 20 19 -2 -3
BITMAP
0000001800
000041F800
000BFBE000
003FAFC000
00BD0B8001
01F807C00B
02F807D078
07FC07D6E0
07FE07EF40
0BDFFFF800
0B87FFC000
0B805F4000
0B802F0000
07C07E0000
07E6F80000
0FFFE00000
2FAA400000
7E00000000
6400000000
ENDCHAR
STARTCHAR ugrave
ENCODING 249
SWIDTH 468 0
DWIDTH 17 0
BBX 20 22 0 -1
BITMAP
0014000000
007F400000
006FD00000
0007F40000
0000780000
0000000000
0000000000
0190064000
0BD00FC000
1F801F8000
2F402F8000
3F003F4000
7E007F4006
7D00BF000D
BD00BE0028
FC00BC00B0
FC00B801D0
FC01F80780
FD07FC2E00
7FAF7FF800
2FFD2FD000
0590050000
ENDCHAR
STARTCHAR uacute
ENCODING 250
SWIDTH 468 0
DWIDTH 17 0
BBX 20 22 0 -1
BITMAP
0000050000
00002E0000
0001FE0000
000BF80000
001F800000
0000000000
0000000000
0190064000
0BD00FC000
1F801F8000
2F402F8000
3F003F4000
7E007F4006
7D00BF000D
BD00BE0028
FC00BC00B0
FC00B801D0
FC01F80780
FD07FC2E00
7FAF7FF800
2FFD2FD000
0590050000
ENDCHAR
STARTCHAR ucircumflex
ENCODING 251
SWIDTH 468 0
DWIDTH 17 0
BBX 20 22 0 -1
BITMAP
0000A80000
0003FD0000
001FAF0000
00BD0F8000
0050014000
0000000000
0000000000
0190064000
0BD00FC000
1F801F8000
2F402F8000
3F003F4000
7E007F4006
7D00BF000D
BD00BE0028
FC00BC00B0
FC00B801D0
FC01F80780
FD07FC2E00
7FAF7FF800
2FFD2FD000
0590050000
ENDCHAR
STARTCHAR udieresis
ENCODING 252
SWIDTH 468 0
DWIDTH 17 0
BBX 20 21 0 -1
BITMAP
001A019000
007F0FE000
00BD0FD000
0010000000
0000000000
0000000000
0190064000
0BD00FC000
1F801F8000
2F402F8000
3F003F4000
7E007F4006
7D00BF000D
BD00BE0028
FC00BC00B0
FC00B801D0
FC01F80780
FD07FC2E00
7FAF7FF800
2FFD2FD000
0590050000
ENDCHAR
STARTCHAR yacute
ENCODING 253
SWIDTH 406 0
DWIDTH 15 0
BBX 14 36 -1 -15
BITMAP
00000040
000007E0
00001FD0
0000BF40
0002F400
00000000
00000000
069002A0
0BE007F0
0BE007F0
0FD007E0
0FC00BD0
1F800FC0
2F401F80
3F003F40
7E007F00
7D00FE00
BD02FE00
7E0BFD00
7FBFBC00
2FFDBC00
0BE0F800
0000F400
0001F400
0002F000
0003E000
0007E000
0007D000
000BC000
000FC000
001F8000
002F8000
002F4000
003F0000
007F0000
002E0000
ENDCHAR
STARTCHAR thorn
ENCODING 254
SWIDTH 451 0
DWIDTH 16 0
BBX 23 40 -4 -15
BITMAP
00001A000000
00007F400000
00007F400000
00007F000000
00007E000000
0000BE000000
0000FD000000
0000FC000000
0001F8000000
0002F4000000
0003F0000000
0003E07D0000
0007D3FF4000
000BDFAF8000
000BFC0F8000
000FF00B8000
001FD00F8004
002F401F4028
002F002F0070
003E003E01D0
007D00BC0780
007ED1F81E00
00BFFFF0B800
00FFFFEBE000
01FBFFFF4000
01F1F9640000
02F000000000
03E000000000
07D000000000
07D000000000
0BC000000000
0FC000000000
1F8000000000
1F4000000000
2F4000000000
3F0000000000
7F0000000000
BE0000000000
BE0000000000
7D0000000000
ENDCHAR
STARTCHAR ydieresis
ENCODING 255
SWIDTH 406 0
DWIDTH 15 0
BBX 14 35 -1 -15
BITMAP
001A0190
007F4FE0
00BE0FD0
00100000
00000000
00000000
069002A0
0BE007F0
0BE007F0
0FD007E0
0FC00BD0
1F800FC0
2F401F80
3F003F40
7E007F00
7D00FE00
BD02FE00
7E0BFD00
7FBFBC00
2FFDBC00
0BE0F800
0000F400
0001F400
0002F000
0003E000
0007E000
0007D000
000BC000
000FC000
001F8000
002F8000
002F4000
003F0000
007F0000
002E0000
ENDCHAR
STARTCHAR dotlessi
ENCODING 305
SWIDTH 274 0
DWIDTH 10 0
BBX 13 15 0 -1
BITMAP
02A00000
0BE00000
0FD00000
1FC00000
2F800000
2F400140
3F000740
3E000E00
3D003C00
7D00F400
7C07D000
7C1F4000
3FFD0000
1FF40000
01400000
ENDCHAR
STARTCHAR Lslash
ENCODING 321
SWIDTH 492 0
DWIDTH 18 0
BBX 23 34 -4 -7
BITMAP
000000000150
000000002FF8
00000000BFFC
00000002FEFC
00000003F4BC
0000000BE0BC
0000000FD0F8
0000001FC2F0
0000002F8BE0
0000003F6F80
0000003FFF00
0000007FFC00
003956FFE000
002FFFFE4000
0006FFFD0000
000001FC0000
000001F80000
000002F45000
000007FFF000
0001BFFFE000
000BFFE50000
000FEFD00000
00090FC00000
00001F800000
00002F000000
00007E000000
0000BD000000
06FEF8000000
2FFFF4000000
7F9FFE000140
BD6FBFE41B40
7FF91FFFFF00
1A9002FFFE00
0000002FF400
ENDCHAR
STARTCHAR lslash
ENCODING 322
SWIDTH 218 0
DWIDTH 8 0
BBX 13 26 -3 -1
BITMAP
00006800
0002FC00
0002FC00
0002F800
0003F400
0003F400
0007F000
0007E000
000BD000
000FD000
001FEFC0
06FFFF80
2FFFE500
7FBF4000
643F0000
007E0000
00BD0000
00FC0000
00FC0000
01F80000
02F40000
03F00000
03F00000
07E00000
07D00000
02800000
ENDCHAR
STARTCHAR OE
ENCODING 338
SWIDTH 918 0
DWIDTH 33 0
BBX 34 34 0 -7
BITMAP
00000A940000055400
00007FFF4001BFFE00
0001FFEFC00BF95F80
0003FF4BD07F8007D0
000FE503E1FE0007E0
002F8003F7F80007E0
007F4002FFF0000BD0
00BE0002FFE0000FD0
01FC0002FFD0002F80
02F80002FFC000BF40
03F40002FFC001FE00
07F00002FFC0001400
0BE00002FFC0000000
0FD00002FFD0000000
1FC00002FFF0000000
2F800003FBF8000000
3F800003F4BFF80000
3F400003F6FFFC0000
7F400007FFE5A40000
7F00000BFE00000000
7F00000BF800000000
BF00000FF000000000
BE00001FE000000000
BE00002FC000000400
BE00003FC000002800
BE0000BFC000003400
7E0000FFC00000B000
7F0002FFD00001D000
3F0003FFE00007C000
2F400FDFF8001F4000
1F802F87FE41BD0000
0BE5FE01FFFFF40000
02FFF4006FFF800000
006E80000194000000
ENDCHAR
STARTCHAR oe
ENCODING 339
SWIDTH 583 0
DWIDTH 21 0
BBX 24 16 0 -1
BITMAP
000400069000
01FF407FF400
07FBE2F6F400
0FC0FBD1F400
2F40BF42F000
7F80BF07D000
BFC0BE1F4001
FFF4BDBD0007
F5FFFFF4001D
F47FFF400078
F402FC0001E0
F403FC000780
F80BFD002E00
BD7FBF96F400
3FFD1FFF8000
069006A90000
ENDCHAR
STARTCHAR Scaron
ENCODING 352
SWIDTH 474 0
DWIDTH 17 0
BBX 22 40 -2 -7
BITMAP
000000290150
0000002F47D0
0000000FAF40
00000007F800
000000029000
000000000000
000001AA4000
00002FFFF400
0000FF91FC00
0003FD00BD00
000FE0007E00
001FC0007E00
003F40007E00
007F0000BE00
007F0000FD00
007F0001FC00
007F4003E400
003FC0000000
002FD0000000
000FF4000000
0007FD000000
0002FF400000
0000BFC00000
00003FE00000
00000FF00000
000007F40000
000003F80000
000002F80000
000001FC0000
000000F80000
068000F80000
3F4000F40000
BF0001F40000
BF0002F00000
BF4003E00000
7F800BC00000
3FD02F400000
1FFAFE000000
0BFFF4000000
01AA40000000
ENDCHAR
STARTCHAR scaron
ENCODING 353
SWIDTH 351 0
DWIDTH 13 0
BBX 13 24 0 -1
BITMAP
01900540
00F82E00
007DF800
003FD000
001A4000
00000000
00000000
001E0000
00BF4000
02FE0000
03FC0000
02FC0000
03FD0000
0B7E0000
1D2F0000
381F8000
B00FC000
0007E000
0103F000
1E02F000
3F42D000
3F878000
1FFE0000
07F40000
ENDCHAR
STARTCHAR Ydieresis
ENCODING 376
SWIDTH 532 0
DWIDTH 19 0
BBX 21 39 0 -7
BITMAP
000006806400
00001FD2FC00
00002F83F400
000004000000
000000000000
000040000500
002FC0007F40
003F8000BF00
007F4000BE00
00BF0000FE00
00FE0001FD00
01FD0001FC00
02FC0002F800
02F80003F400
03F40003F000
07F00007E000
0BE0000BE000
0BD0000FD000
0FD0001FC000
1FC0002F8000
1F80003F8000
2F80007F4000
2F4000FF0000
2F4002FE0000
2F4007EE0000
2F801F7D0000
2FD5BD7C0000
0FFFF4BC0000
07FF80F80000
005401F40000
000002F00000
000003E00000
00000BC00000
09001F800000
3F407F000000
BFEBFD000000
BFFFF4000000
2FFF80000000
059400000000
ENDCHAR
STARTCHAR Zcaron
ENCODING 381
SWIDTH 455 0
DWIDTH 16 0
BBX 22 40 -3 -7
BITMAP
000000640150
0000003E0BD0
0000001F7E00
0000000BF800
000000069000
000000000000
000000100000
0002BFFFFF40
000BFFFFFF80
000FFFAAAF80
000E50002F80
000000003F80
000000007F00
00000000FE00
00000002FC00
00000007F400
0000000FE000
0000002FC000
000000BF4000
000001FD0000
000003F80000
00000FE00000
00002FC00000
0000BF400000
0001FD000000
0007F8000000
000FE0000000
002FC0000000
007F40000000
00FD00000000
02F800000000
07E000000000
0FD000000000
2F8000000000
3F0000000000
BD5BFFFA0000
BFFFFFFF4000
BFFFFFFE0000
7FA56AF80000
100000000000
ENDCHAR
STARTCHAR zcaron
ENCODING 382
SWIDTH 349 0
DWIDTH 13 0
BBX 20 38 -5 -16
BITMAP
0000640150
00002F0BD0
00000FAF40
00000BF800
0000029000
0000000000
0000000000
0000055000
000BFFFD00
002FFFFD00
003F94BC00
001400F400
000002F000
000007D000
00000B8000
00002F4002
00007D000A
0001F94028
0007FFE0B0
000FF5F780
000F80FE00
000506F400
00006FE000
0002F7E000
001F87D000
007E0BC000
01F40F8000
07D01F4000
0F803F0000
2F007D0000
3E00FC0000
7C01F80000
BC03F00000
BC0BE00000
BD2F800000
7FFF000000
2FFC000000
0690000000
ENDCHAR
STARTCHAR circumflex
ENCODING 710
SWIDTH 567 0
DWIDTH 20 0
BBX 9 5 8 20
BITMAP
00A800
07FD00
1F6F00
BD1F80
500540
ENDCHAR
STARTCHAR caron
ENCODING 711
SWIDTH 567 0
DWIDTH 20 0
BBX 10 5 7 20
BITMAP
640150
2F0BD0
1FAE00
0BF800
029000
ENDCHAR
STARTCHAR breve
ENCODING 728
SWIDTH 567 0
DWIDTH 20 0
BBX 10 5 7 19
BITMAP
7C01F0
7C02E0
3F6F80
1FFE00
01A400
ENDCHAR
STARTCHAR dotaccent
ENCODING 729
SWIDTH 567 0
DWIDTH 20 0
BBX 5 4 10 20
BITMAP
1A00
7F40
BE00
1000
ENDCHAR
STARTCHAR ring
ENCODING 730
SWIDTH 567 0
DWIDTH 20 0
BBX 5 4 10 20
BITMAP
7F40
A380
E380
BE00
ENDCHAR
STARTCHAR ogonek
ENCODING 731
SWIDTH 567 0
DWIDTH 20 0
BBX 9 6 8 -4
BITMAP
180000
7D0000
B80040
F80780
FFFD00
7F9000
ENDCHAR
STARTCHAR tilde
ENCODING 732
SWIDTH 567 0
DWIDTH 20 0
BBX 11 4 7 20
BITMAP
1A9018
FFFEF8
F96FF4
000100
ENDCHAR
STARTCHAR hungarumlaut
ENCODING 733
SWIDTH 567 0
DWIDTH 20 0
BBX 13 5 6 20
BITMAP
00100100
01F41F40
0BF4BF40
2FD7F900
BD0B9000
ENDCHAR
STARTCHAR endash
ENCODING 8211
SWIDTH 353 0
DWIDTH 13 0
BBX 13 4 -1 9
BITMAP
056AA940
3FFFFFC0
7FFFEB80
54000000
ENDCHAR
STARTCHAR emdash
ENCODING 8212
SWIDTH 508 0
DWIDTH 18 0
BBX 19 4 -1 9
BITMAP
15AAAAAA50
7FFFFFFFF8
7FFFFFFFF8
1500000150
ENDCHAR
STARTCHAR quoteleft
ENCODING 8216
SWIDTH 155 0
DWIDTH 6 0
BBX 5 9 1 16
BITMAP
0040
0740
0E00
2D00
3E40
7F80
7F80
7F00
1400
ENDCHAR
STARTCHAR quoteright
ENCODING 8217
SWIDTH 154 0
DWIDTH 6 0
BBX 5 9 2 16
BITMAP
0500
3F40
BF40
BF40
6F00
1E00
2C00
7400
5000
ENDCHAR
STARTCHAR quotesinglbase
ENCODING 8218
SWIDTH 188 0
DWIDTH 7 0
BBX 5 9 -2 -5
BITMAP
0640
2FC0
7FC0
7F80
1B40
0B00
1D00
3400
1000
ENDCHAR
STARTCHAR quotedblleft
ENCODING 8220
SWIDTH 289 0
DWIDTH 10 0
BBX 10 9 1 16
BITMAP
004050
0741D0
0E0780
2D0B00
3E5F80
7FAFE0
7FAFE0
7F1F80
140500
ENDCHAR
STARTCHAR quotedblright
ENCODING 8221
SWIDTH 288 0
DWIDTH 10 0
BBX 10 9 2 16
BITMAP
050540
7F5FC0
BF7FD0
BF7FC0
2F1B80
1E0740
2C0E00
742800
401000
ENDCHAR
STARTCHAR quotedblbase
ENCODING 8222
SWIDTH 323 0
DWIDTH 12 0
BBX 10 9 -2 -5
BITMAP
064180
2FCFE0
7FDFE0
7F9FE0
1B47D0
0B0380
1D0B40
341D00
100000
ENDCHAR
STARTCHAR bullet
ENCODING 8226
SWIDTH 180 0
DWIDTH 7 0
BBX 7 8 -1 6
BITMAP
07E0
1FF4
3FF8
7FF8
7FF4
7FF0
3FD0
1A40
ENDCHAR
STARTCHAR ellipsis
ENCODING 8230
SWIDTH 614 0
DWIDTH 22 0
BBX 19 4 -1 -1
BITMAP
1A40690068
BF81FF07FC
FF42FD0BF8
A901A40690
ENDCHAR
STARTCHAR perthousand
ENCODING 8240
SWIDTH 851 0
DWIDTH 31 0
BBX 30 28 0 -1
BITMAP
0000000001400000
006F80001F400000
01FFE0003E000000
03E0F400BC000000
0BC0B801F4000000
0F40B807E0000000
1F00B80F80000000
1E00F42F00000000
2E01F47D00000000
2E02E0F800000000
1F07D2F000000000
0FAF87D000000000
07FE0F8000000000
01502E0000000000
00007D0000000000
0000F41B9001B900
0002E0BFF40BFF40
0007D1F4B81F4780
000F83D07C3E03C0
002F0BC03C7C03D0
007D0F807CB803C0
01F80F407CF407C0
02F00F00B8F40B80
0BD00F00F4F40F40
1F800F42E0F42F00
3F400BEBD0BEBD00
BE0007FF403FF400
9400006400064000
ENDCHAR
STARTCHAR guilsinglleft
ENCODING 8249
SWIDTH 202 0
DWIDTH 7 0
BBX 9 15 -2 -1
BITMAP
000680
001F00
007D00
00F400
03E000
0FC000
2F4000
7E0000
2F0000
1F4000
0BC000
03D000
01E000
00B000
001000
ENDCHAR
STARTCHAR guilsinglright
ENCODING 8250
SWIDTH 202 0
DWIDTH 7 0
BBX 9 15 -3 -1
BITMAP
028000
02D000
00F000
00B800
007D00
003E00
001F40
001F80
003E00
00BC00
02F000
07C000
1F4000
3D0000
500000
ENDCHAR
STARTCHAR fraction
ENCODING 8260
SWIDTH 600 0
DWIDTH 22 0
BBX 21 28 1 -1
BITMAP
000000000140
000000001F40
000000003E00
00000000BC00
00000002F400
00000007E000
0000000F8000
0000002F0000
0000007D0000
000000F80000
000002F00000
000007D00000
00000F400000
00002E000000
00007C000000
0000F4000000
0002E0000000
0007C0000000
000F40000000
002E00000000
007D00000000
01F800000000
02F000000000
0BD000000000
1F8000000000
3F4000000000
BE0000000000
940000000000
ENDCHAR
STARTCHAR Euro
ENCODING 8364
SWIDTH 334 0
DWIDTH 12 0
BBX 16 22 -2 2
BITMAP
00000590
00002FF8
0001F92D
0003E01E
000BC018
001F8000
003F0000
007D0000
05FD5400
1FFFFF40
1BF95600
02F54000
2FFFFD00
BFEAA400
07D00000
07C00000
03C00000
03D00280
01D00B40
00F02D00
003FF400
00064000
ENDCHAR
STARTCHAR minus
ENCODING 8722
SWIDTH 353 0
DWIDTH 13 0
BBX 13 4 -1 9
BITMAP
056AA940
3FFFFFC0
7FFFEB80
54000000
ENDCHAR
STARTCHAR fi
ENCODING 64257
SWIDTH 549 0
DWIDTH 20 0
BBX 27 42 -4 -17
BITMAP
00002F80000000
00003F80000000
00003F8001E000
00003F8007E000
00003F4007E000
00003F40038000
00003F00000000
00007E00000000
0000BD00000000
0000BC00000000
0000F800000000
0001F4002A0000
0002F000BE0000
0002E000FD0000
0003D005FC0000
0007D6FFF80000
000FFF92F40014
003FE403F00074
00BF0003E001E0
00FE0007D003C0
00FE0007D00F40
007F4007C07D00
00BFD007C1F400
00FAF403FFD000
00F4BC01FE0000
01F03E00140000
02F02F00000000
03E00F40000000
03D00F80000000
07C00F80000000
0BC00F80000000
0F800F80000000
0F401F40000000
1F402F00000000
2F007E00000000
2E00FC00000000
3E02F400000000
7D0BE000000000
7EBFC000000000
7FFF0000000000
3FF80000000000
1B900000000000
ENDCHAR
STARTCHAR fl
ENCODING 64258
SWIDTH 516 0
DWIDTH 19 0
BBX 23 42 -4 -17
BITMAP
00002F800164
00003F8003F8
00003F8003F8
00003F8003F4
00003F4003F4
00003F4007F0
00003F000BE0
00007E000BD0
0000BD000FC0
0000BC001FC0
0000F8002F80
0001F4002F40
0002F0003F00
0002E0007F00
0003D005BE00
0007D6FFFD00
000FFF90FC00
003FE401F800
00BF0001F800
00FE0002F400
00FE0003F000
007F4003E000
00BFD007E000
00FAF40BD000
00F4BC0BC000
01F03E024000
02F02F000000
03E00F400000
03D00F800000
07C00F800000
0BC00F800000
0F800F800000
0F401F400000
1F402F000000
2F007E000000
2E00FC000000
3E02F4000000
7D0BE0000000
7EBFC0000000
7FFF00000000
3FF800000000
1B9000000000
ENDCHAR
STARTCHAR .notdef
ENCODING -1
SWIDTH 280 0
DWIDTH 10 0
BBX 1 1 0 0
BITMAP
00
ENDCHAR
ENDFONT
